<?xml version="1.0" encoding="UTF-8" standalone="no"?>
<!DOCTYPE svg PUBLIC "-//W3C//DTD SVG 1.1//EN" "http://www.w3.org/Graphics/SVG/1.1/DTD/svg11.dtd">
<svg width="100%" height="100%" viewBox="0 0 620 599" version="1.1" xmlns="http://www.w3.org/2000/svg" xmlns:xlink="http://www.w3.org/1999/xlink" xml:space="preserve" xmlns:serif="http://www.serif.com/" style="fill-rule:evenodd;clip-rule:evenodd;stroke-linejoin:round;stroke-miterlimit:2;">
    <g transform="matrix(0.37016,0,0,0.37016,-206.704,-57.6234)">
        <path d="M1598.67,736.805C1598.57,738.566 1598.51,739.492 1598.51,739.492C1598.51,739.492 1598.22,738.596 1597.66,736.881C1593.06,722.704 1570.6,652.729 1550.15,574.814C1521.87,467.013 1497.47,344.033 1529.58,332.664C1590.42,311.11 1601.64,483.346 1601.81,610.44C1601.91,673.053 1599.32,724.692 1598.67,736.805Z" style="fill:rgb(168,210,159);fill-rule:nonzero;"/>
    </g>
    <g transform="matrix(0.37016,0,0,0.37016,-206.704,-57.6234)">
        <path d="M1658.2,596.839C1636.22,645.609 1617.14,686.639 1606.19,711.213C1601.43,721.93 1598.21,729.504 1596.96,733.238C1598.03,727.166 1600.9,710.879 1604.99,687.701L1604.99,687.67C1611.14,652.941 1620.07,602.774 1629.86,548.297C1653.63,415.891 1682.56,258.135 1689.31,235.579C1701.23,195.795 1756.15,111.096 1793.11,184.79C1817.12,232.68 1724.45,449.846 1658.2,596.839Z" style="fill:rgb(168,210,159);fill-rule:nonzero;"/>
    </g>
    <g transform="matrix(0.37016,0,0,0.37016,-206.704,-57.6234)">
        <path d="M1662.63,666.42C1639.91,690.403 1620.81,709.847 1610.14,720.594C1604.31,726.483 1601,729.762 1601,729.762C1601,729.762 1606.82,717.361 1616.73,697.552C1626.09,678.836 1639.1,653.518 1654.31,625.816C1704.14,535.016 1777.5,418.638 1823,425.362C1874.91,433.027 1744.99,579.49 1662.63,666.42Z" style="fill:rgb(168,210,159);fill-rule:nonzero;"/>
    </g>
    <g transform="matrix(0.37016,0,0,0.37016,-206.704,-57.6234)">
        <path d="M1598.67,736.805C1598.35,736.82 1598.01,736.851 1597.66,736.881C1593.06,722.704 1570.6,652.729 1550.15,574.814C1559.69,589.098 1576.93,608.254 1601.81,610.44C1601.91,673.053 1599.32,724.692 1598.67,736.805Z" style="fill:rgb(130,179,120);fill-rule:nonzero;"/>
    </g>
    <g transform="matrix(0.37016,0,0,0.37016,-206.704,-57.6234)">
        <path d="M1658.2,596.839C1636.22,645.609 1617.14,686.639 1606.19,711.213C1605.36,704.353 1604.99,696.398 1604.99,687.701L1604.99,687.67C1611.14,652.941 1620.07,602.774 1629.86,548.297C1633.68,567.316 1641.65,588.385 1658.2,596.839Z" style="fill:rgb(130,179,120);fill-rule:nonzero;"/>
    </g>
    <g transform="matrix(0.37016,0,0,0.37016,-206.704,-57.6234)">
        <path d="M1662.63,666.42C1639.91,690.403 1620.81,709.847 1610.14,720.594C1611.17,714.416 1613.57,706.401 1616.73,697.552C1626.09,678.836 1639.1,653.518 1654.31,625.816C1654.66,637.428 1656.31,654.732 1662.63,666.42Z" style="fill:rgb(130,179,120);fill-rule:nonzero;"/>
    </g>
    <g transform="matrix(0.37016,0,0,0.37016,-206.704,-57.6234)">
        <path d="M1596.95,733.269C1596.65,734.968 1596.49,735.864 1596.49,735.864C1596.27,735.743 1596.42,734.862 1596.95,733.269Z" style="fill:rgb(168,210,159);fill-rule:nonzero;"/>
    </g>
    <g transform="matrix(0.37016,0,0,0.37016,-206.704,-57.6234)">
        <path d="M1627.46,908.343C1589.34,1016.33 1541.88,1134.07 1541.88,1134.07L1434.66,1101.94C1434.66,1101.94 1447.21,1021.96 1465.64,932.963C1487.13,829.2 1499.4,724.501 1543.49,697.264C1555.62,689.768 1568.73,686.289 1581.54,685.348C1588.01,684.862 1594.45,685.075 1600.73,685.91C1602.23,686.107 1603.7,686.335 1605.19,686.593C1608.91,687.261 1612.57,688.126 1616.14,689.188C1617.53,689.583 1618.91,690.023 1620.28,690.509C1625.03,692.118 1629.62,694.061 1633.99,696.277C1652.55,705.719 1667.5,719.921 1673.36,735.272C1690.97,781.418 1656.27,826.756 1627.46,908.343Z" style="fill:rgb(237,125,43);fill-rule:nonzero;"/>
    </g>
    <g transform="matrix(0.37016,0,0,0.37016,-206.704,-57.6234)">
        <path d="M1575.07,1040.63C1546.9,1126.08 1538.53,1219.85 1550.1,1319.9C1552.03,1336.58 1561.33,1351.08 1574.75,1359.96C1580.77,1363.94 1587.61,1366.8 1594.99,1368.24C1611.54,1368.15 1644.19,1338.07 1662.86,1299.68C1667.99,1289.12 1672.08,1277.94 1674.47,1266.57C1693.19,1177.77 1727.85,1070.84 1770.85,1016.19C1814.82,960.302 1874.05,893.498 1955.49,847.554C1955.49,847.554 1955.5,847.541 1955.52,847.537C1963.38,843.036 2148.16,708.476 2148.16,708.476C2166.55,689.04 2144.77,667.263 2144.77,667.263C2144.77,667.263 2127.22,682.652 2073.68,713.483C2020.15,744.301 1926.14,708.179 1926.1,708.175C1899.76,696.265 1868.5,697.476 1842.62,713.187C1802.68,737.429 1749.5,775.662 1699.06,830.708C1642.31,892.642 1600.59,963.27 1575.07,1040.63Z" style="fill:rgb(255,185,62);fill-rule:nonzero;"/>
    </g>
    <g transform="matrix(0.37016,0,0,0.37016,-206.704,-57.6234)">
        <path d="M1674.47,1266.57C1693.19,1177.77 1727.85,1070.84 1770.85,1016.19C1814.82,960.302 1874.05,893.498 1955.49,847.554C1955.49,847.554 1955.5,847.541 1955.52,847.537C1956.94,846.506 2012.03,805.878 1950.97,769.088C1891.21,733.086 1647.28,1001.3 1662.86,1299.68C1667.99,1289.12 1672.08,1277.94 1674.47,1266.57Z" style="fill:rgb(255,164,18);fill-rule:nonzero;"/>
    </g>
    <g transform="matrix(0.37016,0,0,0.37016,-206.704,-57.6234)">
        <path d="M1450.81,919.272C1443.09,931.398 1433.62,943.136 1422.44,954.143C1380.09,995.861 1313.61,1026.8 1228.03,1026C1228.03,1026 1192.1,991.747 1174.68,948.166L1174.7,948.15C1162.62,917.922 1153.8,873.41 1174.68,840.371C1188.14,819.085 1205.45,809.009 1223,803.699C1252.81,794.632 1283.29,799.306 1296.61,786.031C1309.74,772.943 1328.43,761.64 1348.96,755.135C1352.31,754.063 1355.71,753.117 1359.16,752.34L1359.17,752.34C1360.6,751.999 1362.02,751.688 1363.46,751.409C1363.49,751.394 1363.52,751.394 1363.55,751.394C1395.19,745.214 1428.99,751.269 1452.5,779.479C1457.95,786.016 1462.9,793.918 1467.11,803.42C1482.17,837.266 1475.7,880.194 1450.81,919.272Z" style="fill:rgb(168,210,159);fill-rule:nonzero;"/>
    </g>
    <g transform="matrix(0.37016,0,0,0.37016,-206.704,-57.6234)">
        <path d="M1201.9,835.472C1201.9,835.472 1173.66,857.644 1182.31,882.171C1190.97,906.698 1213.29,895.369 1220.27,878.379C1227.25,861.389 1220.47,827.235 1201.9,835.472Z" style="fill:rgb(209,242,201);fill-rule:nonzero;"/>
    </g>
    <g transform="matrix(0.37016,0,0,0.37016,-206.704,-57.6234)">
        <path d="M1452.5,779.473C1457.95,786.011 1462.9,793.925 1467.11,803.424C1482.17,837.269 1502.84,927.043 1477.96,966.129L1444.58,996.663C1402.23,1038.38 1313.61,1026.8 1228.03,1025.99C1228.03,1025.99 1192.11,991.742 1174.68,948.165L1174.7,948.152C1174.7,948.152 1280.56,990.035 1380.26,902.596C1425.55,862.875 1444.88,817.35 1452.5,779.473Z" style="fill:rgb(149,195,139);fill-rule:nonzero;"/>
    </g>
    <g transform="matrix(0.37016,0,0,0.37016,-206.704,-57.6234)">
        <path d="M1291.04,734.826C1273.56,724.418 1255.88,739.038 1235.36,747.062C1214.82,755.099 1175.32,754.936 1175.32,754.936C1175.32,754.936 1191.57,731.549 1218.2,708.314C1244.83,685.08 1291.04,734.826 1291.04,734.826Z" style="fill:rgb(168,210,159);fill-rule:nonzero;"/>
    </g>
    <g transform="matrix(0.37016,0,0,0.37016,-206.704,-57.6234)">
        <path d="M1291.04,734.826C1274.62,721.345 1244.24,713.615 1229.42,719.68C1214.6,725.745 1175.32,754.936 1175.32,754.936C1175.32,754.936 1191.57,731.549 1218.2,708.314C1244.83,685.08 1291.04,734.826 1291.04,734.826Z" style="fill:rgb(130,179,120);fill-rule:nonzero;"/>
    </g>
    <g transform="matrix(0.37016,0,0,0.37016,-206.704,-57.6234)">
        <path d="M1296.61,786.031C1309.74,772.943 1328.43,761.64 1348.96,755.135C1314.06,768.223 1294.81,812.456 1281.56,807.332C1267.36,801.821 1224.63,803.622 1223,803.699C1252.81,794.632 1283.29,799.306 1296.61,786.031Z" style="fill:rgb(149,195,139);fill-rule:nonzero;"/>
    </g>
    <g transform="matrix(0.37016,0,0,0.37016,-206.704,-57.6234)">
        <path d="M1363.46,751.409C1362.36,751.719 1360.94,752.03 1359.17,752.34C1360.6,751.999 1362.02,751.688 1363.46,751.409Z" style="fill:rgb(149,195,139);fill-rule:nonzero;"/>
    </g>
    <g transform="matrix(0.37016,0,0,0.37016,-206.704,-57.6234)">
        <path d="M1284.03,806.444C1272.83,781.713 1278.89,751.035 1285.93,729.656C1291.54,712.641 1302.3,689.67 1307.58,678.751C1308.69,676.444 1312.04,676.677 1312.85,679.111L1314.98,685.556C1317.11,692.013 1316.33,699.076 1312.81,704.894C1301.99,722.779 1280.26,764.582 1290.05,798.994C1291.15,802.866 1286.01,810.874 1284.03,806.444Z" style="fill:rgb(130,179,120);fill-rule:nonzero;"/>
    </g>
    <g transform="matrix(0.37016,0,0,0.37016,-206.704,-57.6234)">
        <path d="M1514.42,917.918L1510.94,916.522C1526.35,893.583 1550.27,877.854 1569.1,870.576C1585.59,864.206 1598.79,862.115 1603.5,861.503C1604.65,861.354 1605.79,861.794 1606.54,862.672L1609.46,866.074C1610.91,867.755 1609.91,870.446 1607.71,870.76C1590.86,873.168 1537.71,883.275 1514.42,917.918Z" style="fill:rgb(43,71,139);fill-rule:nonzero;"/>
    </g>
    <g transform="matrix(0.37016,0,0,0.37016,-206.704,-57.6234)">
        <path d="M1448.85,924.471C1466.52,880.31 1491.4,890.271 1522.1,902.557C1552.79,914.844 1577.67,924.804 1559.99,968.964C1547.32,1000.61 1512.17,1016.31 1481.48,1004.02C1450.79,991.737 1436.18,956.12 1448.85,924.471Z" style="fill:rgb(105,157,238);fill-rule:nonzero;"/>
    </g>
    <g transform="matrix(0.37016,0,0,0.37016,-206.704,-57.6234)">
        <path d="M1467.46,915.343C1468.57,907.428 1481.31,899.096 1489.23,900.203C1497.14,901.31 1500.82,910.153 1499.72,918.068C1498.61,925.983 1487.71,932.786 1479.79,931.679C1471.88,930.572 1466.36,923.258 1467.46,915.343Z" style="fill:rgb(146,190,255);fill-rule:nonzero;"/>
    </g>
    <g transform="matrix(0.37016,0,0,0.37016,-206.704,-57.6234)">
        <path d="M1874.93,935.591L1969.72,1610.84C1981.48,1694.59 1916.45,1769.39 1831.88,1769.39L1689.06,1769.39C1616.94,1769.39 1560.8,1706.76 1568.64,1635.07L1648.86,1006.94L1874.93,935.591Z" style="fill:rgb(252,236,219);fill-rule:nonzero;"/>
    </g>
    <g transform="matrix(0.37016,0,0,0.37016,-206.704,-57.6234)">
        <path d="M1377.11,935.591C1377.11,935.591 1606.87,1013.93 1874.93,935.591L1795.95,1771.52L1295.73,1771.52L1377.11,935.591Z" style="fill:rgb(252,236,219);fill-rule:nonzero;"/>
    </g>
    <g transform="matrix(0.37016,0,0,0.37016,-206.704,-57.6234)">
        <path d="M1377.11,935.591L1471.9,1612.57C1483.66,1696.53 1418.63,1771.52 1334.06,1771.52L1191.24,1771.52C1119.12,1771.52 1062.98,1708.74 1070.82,1636.86L1138.72,935.591C1138.72,935.591 1172.17,942.121 1253.55,942.121C1334.14,942.121 1377.11,935.591 1377.11,935.591Z" style="fill:rgb(239,203,171);fill-rule:nonzero;"/>
    </g>
    <g transform="matrix(0.37016,0,0,0.37016,-206.704,-57.6234)">
        <path d="M1802.25,1010.87C1802.25,1001.04 1794.28,993.075 1784.45,993.075C1774.63,993.075 1766.66,1001.04 1766.66,1010.87C1766.66,1017.44 1770.23,1023.17 1775.53,1026.25C1783.08,1086.16 1771.17,1135.12 1741.47,1165.12C1714.46,1192.38 1673.5,1202.49 1623.02,1194.34C1578.63,1187.18 1549.42,1138.06 1532.73,1098.12C1520.72,1069.39 1513.31,1041.1 1509.5,1024.3C1513.26,1021.04 1515.64,1016.24 1515.64,1010.87C1515.64,1001.04 1507.68,993.075 1497.85,993.075C1488.02,993.075 1480.05,1001.04 1480.05,1010.87C1480.05,1017.5 1483.68,1023.27 1489.05,1026.33C1498.62,1070.24 1534.05,1200.59 1619.78,1214.43C1632.26,1216.44 1644.24,1217.44 1655.7,1217.44C1696.81,1217.44 1731.04,1204.56 1755.92,1179.43C1789.98,1145.04 1803.92,1090.45 1795.82,1024.57C1799.75,1021.3 1802.25,1016.38 1802.25,1010.87Z" style="fill:rgb(237,125,43);fill-rule:nonzero;"/>
    </g>
    <g transform="matrix(1,0,0,1,-261.275,190.887)">
        <g transform="matrix(0.37016,0,0,0.37016,-19.7044,-57.6234)">
            <path d="M2104.74,1190.44C2116.78,1194.43 2129.8,1197.18 2143.58,1198.48C2195.81,1203.42 2258.55,1187.53 2316.64,1139.27C2316.64,1139.27 2322.13,1095.82 2309.76,1056.29L2309.74,1056.29C2301.15,1028.87 2282.38,993.505 2249.67,982.541C2228.6,975.481 2211.14,978.236 2196.18,984.383C2170.73,994.796 2152.48,1014.98 2135.97,1013.32C2119.69,1011.69 2100.6,1014.38 2082.93,1021.37C2080.04,1022.5 2077.18,1023.75 2074.39,1025.14L2074.38,1025.15C2073.21,1025.71 2072.07,1026.29 2070.93,1026.9C2070.9,1026.91 2070.88,1026.93 2070.86,1026.94C2045.77,1040.35 2026.02,1063.34 2025.66,1095.74C2025.57,1103.25 2026.59,1111.42 2029.01,1120.26C2037.57,1151.81 2065.93,1177.57 2104.74,1190.44Z" style="fill:rgb(237,125,43);fill-rule:nonzero;"/>
        </g>
        <g transform="matrix(0.37016,0,0,0.37016,-19.7044,-57.6234)">
            <path d="M2228.32,994.361C2228.32,994.361 2260,993.788 2267.75,1015.39C2275.5,1037 2253.92,1041.69 2239.67,1033.96C2225.42,1026.22 2211.03,999.074 2228.32,994.361Z" style="fill:rgb(255,181,131);fill-rule:nonzero;"/>
        </g>
        <g transform="matrix(0.37016,0,0,0.37016,-19.7044,-57.6234)">
            <path d="M2025.66,1095.73C2025.57,1103.24 2026.6,1111.42 2029.01,1120.27C2037.57,1151.82 2073.47,1224.76 2112.28,1237.63C2112.28,1237.63 2189.26,1272.99 2233.27,1256.54C2282.41,1238.17 2312.66,1199.34 2316.64,1139.27C2316.64,1139.27 2322.13,1095.82 2309.76,1056.29L2309.74,1056.29C2309.74,1056.29 2260.66,1143.95 2143.71,1139.71C2090.58,1137.77 2051.98,1117.4 2025.66,1095.73Z" style="fill:rgb(234,108,45);fill-rule:nonzero;"/>
        </g>
        <g transform="matrix(0.37016,0,0,0.37016,-19.7044,-57.6234)">
            <path d="M2111.24,975.187C2117.39,958.326 2137.64,958.473 2156.15,952.523C2174.68,946.576 2201.61,924.446 2201.61,924.446C2201.61,924.446 2177.46,917.501 2146.29,916.449C2115.12,915.396 2111.24,975.187 2111.24,975.187Z" style="fill:rgb(168,210,159);fill-rule:nonzero;"/>
        </g>
        <g transform="matrix(0.37016,0,0,0.37016,-19.7044,-57.6234)">
            <path d="M2111.24,975.187C2114.96,956.812 2131.43,934.591 2144.95,930.48C2158.47,926.37 2201.61,924.446 2201.61,924.446C2201.61,924.446 2177.46,917.501 2146.29,916.449C2115.12,915.396 2111.24,975.187 2111.24,975.187Z" style="fill:rgb(130,179,120);fill-rule:nonzero;"/>
        </g>
        <g transform="matrix(0.37016,0,0,0.37016,-19.7044,-57.6234)">
            <path d="M2135.97,1013.32C2119.69,1011.69 2100.6,1014.38 2082.93,1021.37C2114.1,1010.87 2151.93,1030.4 2158.13,1019.51C2164.78,1007.82 2195.02,985.239 2196.18,984.383C2170.73,994.796 2152.48,1014.98 2135.97,1013.32Z" style="fill:rgb(234,108,45);fill-rule:nonzero;"/>
        </g>
        <g transform="matrix(0.37016,0,0,0.37016,-19.7044,-57.6234)">
            <path d="M2070.93,1026.9C2071.86,1026.5 2073,1025.92 2074.38,1025.15C2073.21,1025.71 2072.07,1026.29 2070.93,1026.9Z" style="fill:rgb(149,195,139);fill-rule:nonzero;"/>
        </g>
        <g transform="matrix(0.37016,0,0,0.37016,-19.7044,-57.6234)">
            <path d="M2155.95,1020.28C2149.82,997.12 2128.58,979.504 2111.85,968.805C2098.52,960.291 2078.36,950.569 2068.66,946.043C2066.61,945.087 2064.45,947.114 2065.26,949.227L2067.39,954.823C2069.53,960.429 2074,964.826 2079.66,966.846C2097.03,973.052 2135.19,989.541 2147.68,1018.54C2149.08,1021.8 2157.06,1024.42 2155.95,1020.28Z" style="fill:rgb(130,179,120);fill-rule:nonzero;"/>
        </g>
    </g>
    <g transform="matrix(0.37016,0,0,0.37016,-206.704,-57.6234)">
        <path d="M964.294,270.002C964.21,267.716 962.441,243.089 924.929,241.802C924.929,241.802 943.375,244.001 946.563,252.111C946.563,252.111 934.002,242.091 923.773,245.313C913.545,248.537 907.537,266.457 907.477,272.352C907.417,278.246 913.1,297.247 919.591,298.863C922.05,299.475 924.883,299.311 927.454,298.873C925.727,301.569 924.034,304.544 922.416,307.867C907.447,338.594 922.884,368.623 935.556,365.305C943.683,363.177 945.983,377.045 945.983,377.045L1024.94,313.123C1024.94,313.123 995.939,253.113 964.294,270.002Z" style="fill:rgb(44,58,100);fill-rule:nonzero;"/>
    </g>
    <g transform="matrix(0.37016,0,0,0.37016,-206.704,-57.6234)">
        <path d="M991.785,1175.22L975.014,1181.47C975.014,1181.47 902.167,1080.43 893.198,991.542C891.596,975.672 892.13,960.295 895.595,946.096C895.595,946.096 894.882,942.029 893.637,934.84C893.062,931.486 892.35,927.446 891.542,922.818C889.173,909.249 885.914,890.682 882.189,869.541C873.618,820.891 862.513,758.699 853.887,712.979L858.405,711.528L907.302,695.754L917.407,663.659L953.815,654.074C953.815,654.074 961.949,669.985 969.22,745.144C970.562,755.002 971.78,765.874 972.698,777.663C975.532,813.647 975.737,858.285 969.233,909.317C967.563,922.38 965.454,935.867 962.839,949.724C960.922,959.884 960.634,973.728 961.442,989.625C965.112,1062.29 991.785,1175.22 991.785,1175.22Z" style="fill:rgb(43,71,139);fill-rule:nonzero;"/>
    </g>
    <g transform="matrix(0.37016,0,0,0.37016,-206.704,-57.6234)">
        <path d="M972.698,777.663L893.637,934.84C893.062,931.486 892.35,927.446 891.542,922.818C889.173,909.249 885.914,890.682 882.189,869.541C873.618,820.891 862.513,758.699 853.887,712.979L858.405,711.528L907.302,695.754L917.407,663.659L953.815,654.074C953.815,654.074 961.949,669.985 969.22,745.144C970.562,755.002 971.78,765.874 972.698,777.663Z" style="fill:rgb(35,56,98);fill-rule:nonzero;"/>
    </g>
    <g transform="matrix(0.37016,0,0,0.37016,-206.704,-57.6234)">
        <path d="M937.917,674.245L936.086,658.549C905.424,666.694 823.497,635.792 823.497,635.792C823.497,635.792 793.792,661.903 797.692,724.493C799.596,755.043 803.073,884.86 806.705,923.274C808.017,937.197 809.167,947.105 809.637,951.063C809.646,951.082 809.646,951.091 809.646,951.101C809.79,952.308 809.368,953.448 808.755,954.502C803.408,963.577 798.981,973.024 795.35,982.693C759.704,1077.68 800.84,1194.66 800.84,1194.66L811.515,1190.36C811.515,1190.36 834.924,1060.17 853.944,1002.66C857.173,992.907 860.268,985.242 863.105,980.661C871.374,967.313 879.049,945.505 886.016,919.566C899.181,870.525 909.779,806.729 916.832,757.486C917.804,757.531 937.917,674.245 937.917,674.245Z" style="fill:rgb(43,71,139);fill-rule:nonzero;"/>
    </g>
    <g transform="matrix(0.37016,0,0,0.37016,-206.704,-57.6234)">
        <path d="M1179.49,654.194C1172.89,660.032 1155.37,639.979 1152.96,637.314C1152.83,637.061 1152.71,636.933 1152.71,636.933L1158.04,622.083C1158.04,622.083 1181.01,621.195 1184.82,625.002C1188.62,628.81 1186.72,647.976 1179.49,654.194Z" style="fill:rgb(255,178,125);fill-rule:nonzero;"/>
    </g>
    <g transform="matrix(0.37016,0,0,0.37016,-206.704,-57.6234)">
        <path d="M1158.04,622.083L1155.75,637.441C1155.75,637.441 1154.74,637.441 1152.96,637.314C1147.37,636.933 1133.79,636.173 1118.44,634.521C1095.34,632.237 1067.92,628.175 1057.01,621.449C1040.38,611.296 1013.09,580.199 995.322,549.103C994.814,548.342 994.434,547.581 994.053,546.819C984.788,530.318 978.314,513.945 977.807,500.873C977.426,492.877 978.314,486.023 979.964,480.058C982.122,472.189 985.676,465.97 989.356,461.273C989.865,460.511 990.372,459.75 991.134,459.115C997.226,451.882 1003.19,448.835 1003.19,448.835C1006.24,447.565 1009.54,449.09 1012.96,452.77L1012.96,452.896C1015.76,455.817 1018.8,460.257 1021.72,465.843C1021.85,465.97 1021.98,466.097 1021.98,466.224C1022.61,467.366 1023.25,468.635 1024.01,470.031C1024.26,470.285 1024.39,470.666 1024.51,470.92C1025.91,473.839 1027.31,476.885 1028.7,480.058C1044.31,514.072 1060.94,565.603 1074.78,580.96C1080.74,587.561 1108.03,600.507 1129.73,610.153C1145.34,617.007 1158.04,622.083 1158.04,622.083Z" style="fill:rgb(255,178,125);fill-rule:nonzero;"/>
    </g>
    <g transform="matrix(0.37016,0,0,0.37016,-206.704,-57.6234)">
        <path d="M996.495,483.875C986.869,488.339 975.244,491.379 961.182,492.146C908.465,495.035 896.498,448.822 894.321,418.151C901.92,415.398 908.575,415.659 912.409,415.864C916.147,416.069 920.049,416.453 923.267,416.85C929.716,413.481 941.3,397.119 947.996,369.748L950.269,370.802L988.307,388.685C988.307,388.685 984.268,401.063 981.283,412.906C978.955,422.176 977.284,431.131 978.681,433.637C981.68,434.855 983.474,435.623 983.474,435.623C983.474,435.623 983.474,435.636 983.487,435.664C983.871,436.636 992.141,457.708 996.495,483.875Z" style="fill:rgb(255,178,125);fill-rule:nonzero;"/>
    </g>
    <g transform="matrix(0.37016,0,0,0.37016,-206.704,-57.6234)">
        <path d="M1009.68,518.463C1009.28,519.517 1008.85,520.544 1008.37,521.599C995.017,550.353 970.301,669.465 970.301,669.465C973.82,690.879 809.359,665.261 808.934,645.763C803.142,625.087 829.487,591.869 844.343,575.205C846.205,573.11 847.876,570.864 849.327,568.496C852.997,562.553 855.325,555.843 856.064,548.833C858.981,521.192 857.872,495.288 858.117,479.536L858.118,479.535C861.021,477.385 863.828,475.399 866.443,473.51C870.441,470.593 873.974,467.869 876.576,465.103C879.438,462.09 881.231,459.009 881.437,455.532C881.587,452.902 881.505,450.205 881.231,447.508C881.107,446.234 880.943,444.961 880.751,443.688C878.698,430.31 873.111,418.178 873.111,418.178C887.256,412.455 912.409,415.864 912.409,415.864C912.409,415.864 912.382,417.261 912.368,419.547C912.286,428.735 912.368,452.328 915.312,456.792C918.995,462.351 986.376,486.709 989.937,479.165C993.441,471.744 983.843,436.978 983.487,435.664C983.474,435.636 983.474,435.623 983.474,435.623C1006.04,444.481 1014.1,451.917 1014.1,451.917C1000.51,460.735 1020.2,490.571 1009.68,518.463Z" style="fill:rgb(249,151,70);fill-rule:nonzero;"/>
    </g>
    <g transform="matrix(0.37016,0,0,0.37016,-206.704,-57.6234)">
        <path d="M988.308,388.692C988.308,388.692 984.264,401.058 981.284,412.914C959.05,406.71 952.298,383.339 950.267,370.81L988.308,388.692Z" style="fill:rgb(237,152,95);fill-rule:nonzero;"/>
    </g>
    <g transform="matrix(0.37016,0,0,0.37016,-206.704,-57.6234)">
        <path d="M992.99,401.786C992.99,401.786 939.796,389.475 947.972,356.466C956.149,323.458 954.79,299.638 989.099,306.103C1023.41,312.567 1026.86,326.792 1026.81,338.473C1026.76,350.154 1007.04,404.138 992.99,401.786Z" style="fill:rgb(255,178,125);fill-rule:nonzero;"/>
    </g>
    <g transform="matrix(0.37016,0,0,0.37016,-206.704,-57.6234)">
        <path d="M1029.8,319.732C1024.08,307.769 1017.35,308.407 1013.14,310.528C988.149,287.402 963.633,306.295 963.633,306.295C954.197,329.091 933.747,338.405 933.747,338.405C933.747,338.405 941.918,346.772 965.603,346.588C972.838,346.532 980.112,343.21 986.73,338.633C973.964,351.492 958.994,359.32 958.994,359.32C988.643,353.646 1008.52,319.322 1010.56,315.676C1013.07,319.385 1017.88,327.28 1018.28,333.948C1018.83,343.008 1015.71,360.603 1020.9,361.27C1020.9,361.27 1038.38,337.675 1029.8,319.732Z" style="fill:rgb(44,58,100);fill-rule:nonzero;"/>
    </g>
    <g transform="matrix(0.37016,0,0,0.37016,-206.704,-57.6234)">
        <path d="M1014.11,451.911C1014.11,451.911 1026.92,474.253 1028.83,480.002C1028.83,480.002 1012.22,479.364 1005.52,492.14C1005.52,492.14 1003.91,454.922 1014.11,451.911Z" style="fill:rgb(249,151,70);fill-rule:nonzero;"/>
    </g>
    <g transform="matrix(0.37016,0,0,0.37016,-206.704,-57.6234)">
        <path d="M926.02,629.441C893.582,629.099 866.114,595.415 849.327,568.496C852.997,562.553 855.325,555.843 856.064,548.833C858.981,521.192 857.872,495.288 858.117,479.536L858.118,479.535C861.021,477.385 863.828,475.399 866.443,473.51C870.441,470.593 873.974,467.869 876.576,465.103C903.139,510 970,629.906 926.02,629.441Z" style="fill:rgb(237,125,43);fill-rule:nonzero;"/>
    </g>
    <g transform="matrix(0.37016,0,0,0.37016,-206.704,-57.6234)">
        <path d="M862.901,1203.38L778.43,1203.38C778.43,1203.38 776.405,1190.5 780.817,1180.74C785.045,1171.37 791.667,1167.11 790.081,1155.77C795.449,1161.29 804.197,1167.48 816.409,1165.84C817.905,1168.27 826.068,1181.25 831.066,1184.84C836.586,1188.81 861.201,1187.39 862.901,1203.38Z" style="fill:rgb(35,56,98);fill-rule:nonzero;"/>
    </g>
    <g transform="matrix(0.37016,0,0,0.37016,-206.704,-57.6234)">
        <path d="M1044.27,1203.38L959.801,1203.38C959.801,1203.38 956.643,1189.91 962.188,1180.74C967.097,1172.63 965.216,1168.01 961.58,1161.29C965.407,1162.86 970.357,1164.29 975.807,1163.97C980.016,1163.73 984.466,1161.82 988.369,1159.56C992.005,1163.7 1007.57,1181.34 1012.44,1184.84C1017.96,1188.81 1042.57,1187.39 1044.27,1203.38Z" style="fill:rgb(35,56,98);fill-rule:nonzero;"/>
    </g>
    <g transform="matrix(0.37016,0,0,0.37016,-206.704,-57.6234)">
        <path d="M1128.71,600.17L1124.57,599.149C1138.3,570.928 1162.72,549.478 1182.75,538.331C1200.29,528.573 1214.8,524.146 1220.01,522.716C1221.28,522.368 1222.62,522.684 1223.61,523.554L1227.43,526.919C1229.32,528.583 1228.62,531.767 1226.19,532.465C1207.63,537.823 1149.44,557.55 1128.71,600.17Z" style="fill:rgb(43,71,139);fill-rule:nonzero;"/>
    </g>
    <g transform="matrix(0.37016,0,0,0.37016,-206.704,-57.6234)">
        <path d="M1055.99,617.854C1068.92,565.412 1098.47,572.699 1134.92,581.689C1171.37,590.679 1200.91,597.966 1187.98,650.409C1178.71,687.993 1141.65,711.174 1105.2,702.185C1068.75,693.194 1046.72,655.438 1055.99,617.854Z" style="fill:rgb(244,108,15);fill-rule:nonzero;"/>
    </g>
    <g transform="matrix(0.37016,0,0,0.37016,-206.704,-57.6234)">
        <path d="M1075.49,604.661C1075.49,595.585 1088.51,584.212 1097.59,584.212C1106.66,584.212 1112.19,593.577 1112.19,602.652C1112.19,611.728 1101,621.093 1091.93,621.093C1082.85,621.093 1075.49,613.736 1075.49,604.661Z" style="fill:rgb(255,144,69);fill-rule:nonzero;"/>
    </g>
    <g transform="matrix(0.37016,0,0,0.37016,-206.704,-57.6234)">
        <path d="M1048.63,647.088L1044.19,663.333C1044.19,663.333 1038.6,662.318 1029.72,660.667C1027.05,660.159 1025.53,659.78 1025.53,659.78C1018.42,658.384 1009.92,656.48 1000.65,654.449L1000.53,654.449C984.661,650.64 966.892,646.073 951.915,640.994C941.38,637.314 932.242,633.38 926.022,629.445C925.388,629.064 924.881,628.683 924.246,628.175C909.396,617.388 891.753,585.658 878.046,551.642C876.143,546.946 874.365,542.25 872.588,537.681C866.242,520.672 861.166,503.919 858.12,489.45C856.215,480.82 854.947,472.95 854.692,466.477C854.565,464.193 854.438,462.036 854.565,460.003C854.819,423.197 873.096,418.12 873.096,418.12C873.477,417.993 873.858,417.866 874.365,417.74C877.538,417.232 880.838,419.389 884.266,423.578C888.581,428.781 893.15,437.285 897.846,447.565C905.08,463.938 912.696,485.135 919.804,506.205C923.738,517.753 927.545,529.304 931.353,539.965C933.511,546.438 935.669,552.53 937.699,558.115C941.634,568.776 945.188,577.406 948.361,582.864C950.392,586.418 956.23,591.369 963.972,596.953C977.426,606.726 997.099,618.53 1014.23,628.175C1021.34,632.237 1028.07,635.918 1033.65,638.964C1042.66,643.915 1048.63,647.088 1048.63,647.088Z" style="fill:rgb(255,178,125);fill-rule:nonzero;"/>
    </g>
    <g transform="matrix(0.37016,0,0,0.37016,-206.704,-57.6234)">
        <path d="M897.801,447.618C873.367,440.882 854.519,459.96 854.519,459.96C854.826,423.212 873.118,418.182 873.118,418.182C880.477,415.135 889.005,427.879 897.801,447.618Z" style="fill:rgb(249,151,70);fill-rule:nonzero;"/>
    </g>
    <g transform="matrix(0.37016,0,0,0.37016,-206.704,-57.6234)">
        <path d="M1048.63,647.088C1048.63,647.088 1056.6,647.263 1061.11,644.508C1065.62,641.753 1078.39,637.999 1084.15,638.624C1084.15,638.624 1086.28,639.499 1085.52,641.502C1084.77,643.506 1075.38,645.134 1075.38,648.89C1075.38,648.89 1087.15,648.515 1090.66,647.012C1094.16,645.509 1107.68,648.961 1110.31,650.518C1112.95,652.075 1093.16,663.988 1084.4,668.799C1075.63,673.61 1044.19,663.333 1044.19,663.333L1048.63,647.088Z" style="fill:rgb(255,178,125);fill-rule:nonzero;"/>
    </g>
    <g transform="matrix(0.37016,0,0,0.37016,-206.704,-57.6234)">
        <path d="M1042.67,1772.4C1039.79,1772.4 1037.33,1770.05 1036.83,1766.85L1008.25,1578.92L967.138,1308.63L955.641,1233.05L984.924,1232.08L990.005,1275.96L1025.68,1584.29L1046.83,1767.05C1047.15,1769.88 1045.2,1772.4 1042.67,1772.4Z" style="fill:rgb(252,236,219);fill-rule:nonzero;"/>
    </g>
    <g transform="matrix(0.37016,0,0,0.37016,-206.704,-57.6234)">
        <path d="M743.015,1233.05L729.983,1318.71L729.983,1318.72L693.993,1555.33L661.814,1766.85C661.33,1770.05 658.869,1772.4 655.991,1772.4C653.455,1772.4 651.494,1769.88 651.828,1767.05L679.576,1527.26L709.251,1270.78L713.732,1232.08L743.015,1233.05Z" style="fill:rgb(252,236,219);fill-rule:nonzero;"/>
    </g>
    <g transform="matrix(0.37016,0,0,0.37016,-206.704,-57.6234)">
        <path d="M729.983,1318.71C731.694,1281.9 709.251,1270.78 709.251,1270.78L713.732,1232.08L743.015,1233.05L729.983,1318.71Z" style="fill:rgb(239,203,171);fill-rule:nonzero;"/>
    </g>
    <g transform="matrix(0.37016,0,0,0.37016,-206.704,-57.6234)">
        <path d="M990.005,1275.96C971.033,1285.67 967.138,1308.63 967.138,1308.63L955.641,1233.05L984.924,1232.08L990.005,1275.96Z" style="fill:rgb(239,203,171);fill-rule:nonzero;"/>
    </g>
    <g transform="matrix(0.37016,0,0,0.37016,-206.704,-57.6234)">
        <path d="M1072.29,1233.05L626.359,1233.05C619.552,1233.05 613.982,1227.48 613.982,1220.68L613.982,1215.76C613.982,1208.95 619.552,1203.38 626.359,1203.38L1072.29,1203.38C1079.1,1203.38 1084.67,1208.95 1084.67,1215.76L1084.67,1220.68C1084.67,1227.48 1079.1,1233.05 1072.29,1233.05Z" style="fill:rgb(252,236,219);fill-rule:nonzero;"/>
    </g>
    <g transform="matrix(0.37016,0,0,0.37016,-316.704,-55.8532)">
        <path d="M2523.33,1771.81L2415.1,1771.81C2409.3,1766.89 2419.12,1755.72 2429.37,1754.97C2433.82,1754.64 2439.45,1755.57 2445.89,1756.93C2447.38,1737.15 2455.88,1648.22 2487.93,1651.8C2523.97,1655.8 2487.93,1690.96 2477.74,1711.77C2470.2,1727.19 2462.24,1749.3 2458.6,1759.74C2461.52,1760.37 2464.55,1760.99 2467.65,1761.56C2472.42,1746.89 2490.2,1697.56 2512.8,1700.43C2539.34,1703.8 2528.67,1723.58 2509.86,1735.32C2496.06,1743.96 2479.12,1756.23 2471.07,1762.16C2477.89,1763.27 2485.01,1764.02 2492.23,1763.85C2510.77,1763.41 2519.82,1768.88 2523.33,1771.81Z" style="fill:rgb(130,179,120);fill-rule:nonzero;"/>
    </g>
    <g transform="matrix(0.37016,0,0,0.37016,-159.704,-55.8532)">
        <path d="M438.802,1771.81L547.025,1771.81C552.825,1766.89 543.013,1755.72 532.759,1754.97C528.307,1754.64 522.675,1755.57 516.241,1756.93C514.753,1737.15 506.248,1648.22 474.195,1651.8C438.155,1655.8 474.195,1690.96 484.383,1711.77C491.93,1727.19 499.892,1749.3 503.529,1759.74C500.604,1760.37 497.574,1760.99 494.48,1761.56C489.703,1746.89 471.929,1697.56 449.327,1700.43C422.789,1703.8 433.456,1723.58 452.266,1735.32C466.065,1743.96 483.011,1756.23 491.063,1762.16C484.24,1763.27 477.121,1764.02 469.897,1763.85C451.359,1763.41 442.311,1768.88 438.802,1771.81Z" style="fill:rgb(130,179,120);fill-rule:nonzero;"/>
    </g>
    <g transform="matrix(0.37016,0,0,0.37016,-206.704,-57.6234)">
        <path d="M1437.08,1607.19C1441.72,1630.47 1447.41,1650.62 1454.02,1668.04C1505.26,1803.06 1612.08,1773.95 1716.35,1773.95C1834.07,1773.95 1833.84,1695.1 1833.84,1588.51C1833.84,1481.93 1768.63,1397.23 1650.92,1397.23C1533.2,1397.23 1416.27,1502.66 1437.08,1607.19Z" style="fill:rgb(255,185,62);fill-rule:nonzero;"/>
    </g>
    <g transform="matrix(0.37016,0,0,0.37016,-206.704,-57.6234)">
        <path d="M1905.48,1623.16C1906.22,1515.18 1827.7,1428.42 1722.86,1399.63C1615.89,1370.24 1527.04,1442.12 1527.21,1546.85C1527.38,1652.05 1618.06,1756.25 1726.57,1770.25C1831.52,1783.8 1904.77,1728.19 1905.48,1623.16Z" style="fill:rgb(255,164,18);fill-rule:nonzero;"/>
    </g>
    <g transform="matrix(0.37016,0,0,0.37016,-206.704,-57.6234)">
        <path d="M1896.06,1620.55C1896.76,1517.95 1822.15,1435.52 1722.54,1408.16C1620.89,1380.24 1536.48,1448.53 1536.63,1548.04C1536.79,1648.01 1622.96,1747.02 1726.06,1760.32C1825.78,1773.19 1895.38,1720.35 1896.06,1620.55Z" style="fill:rgb(255,218,159);fill-rule:nonzero;"/>
    </g>
    <g transform="matrix(0.37016,0,0,0.37016,-206.704,-57.6234)">
        <path d="M1714.65,1560.46L1743.8,1450.74C1745.97,1442.58 1739.61,1432.95 1730.76,1431.03C1719.96,1428.68 1705.1,1426.17 1689.31,1425.63C1671.03,1425.01 1655.67,1426.55 1645.06,1428.19C1636.83,1429.46 1633.54,1438.69 1638.39,1446.87L1705.66,1560.27C1708.06,1564.33 1713.59,1564.45 1714.65,1560.46Z" style="fill:rgb(255,185,62);fill-rule:nonzero;"/>
    </g>
    <g transform="matrix(0.37016,0,0,0.37016,-206.704,-57.6234)">
        <path d="M1739.9,1594.14L1849.21,1662.46C1857.34,1667.54 1866.63,1664.4 1868.23,1656C1870.19,1645.76 1872.17,1631.41 1872.17,1615.42C1872.17,1596.91 1870.14,1580.63 1868.17,1569.18C1866.63,1560.3 1857.41,1553.7 1849.5,1555.8L1739.78,1584.99C1735.86,1586.04 1735.92,1591.66 1739.9,1594.14Z" style="fill:rgb(255,185,62);fill-rule:nonzero;"/>
    </g>
    <g transform="matrix(0.37016,0,0,0.37016,-206.704,-57.6234)">
        <path d="M1733.15,1573.83L1841.26,1545.07C1849.3,1542.93 1851.84,1533.21 1846.44,1525.14C1839.85,1515.3 1830.23,1502.1 1818.34,1489.09C1804.58,1474.04 1791.41,1462.37 1781.86,1454.57C1774.46,1448.54 1764.72,1450.28 1762.13,1458.1L1726.29,1566.48C1725.01,1570.36 1729.23,1574.88 1733.15,1573.83Z" style="fill:rgb(255,185,62);fill-rule:nonzero;"/>
    </g>
    <g transform="matrix(0.37016,0,0,0.37016,-206.704,-57.6234)">
        <path d="M1722.75,1604.3L1756.18,1725.02C1758.67,1734 1768.41,1739.89 1776.14,1737.08C1785.57,1733.64 1798.18,1728.23 1810.51,1720.43C1824.77,1711.4 1835.71,1701.83 1842.97,1694.67C1848.61,1689.11 1846.43,1678.52 1838.58,1673.22L1729.71,1599.74C1725.81,1597.11 1721.54,1599.91 1722.75,1604.3Z" style="fill:rgb(255,185,62);fill-rule:nonzero;"/>
    </g>
    <g transform="matrix(0.37016,0,0,0.37016,-206.704,-57.6234)">
        <path d="M1696.21,1563.76L1623.18,1455.6C1617.74,1447.55 1607.22,1445.35 1601.61,1451.12C1594.77,1458.15 1585.93,1468.38 1578.21,1480.89C1569.28,1495.37 1563.4,1509.11 1559.79,1519.06C1556.99,1526.77 1562.75,1536.55 1571.44,1538.87L1691.91,1570.97C1696.22,1572.12 1698.87,1567.69 1696.21,1563.76Z" style="fill:rgb(255,185,62);fill-rule:nonzero;"/>
    </g>
    <g transform="matrix(0.37016,0,0,0.37016,-206.704,-57.6234)">
        <path d="M1691.88,1580.86L1572.89,1560.17C1564.04,1558.63 1557.63,1565.74 1559.78,1574.75C1562.4,1585.74 1566.7,1600.8 1573.32,1616.65C1580.99,1634.99 1589.42,1650.24 1595.8,1660.73C1600.75,1668.87 1611.13,1671.45 1616.83,1665.96L1695.76,1589.88C1698.59,1587.15 1696.2,1581.61 1691.88,1580.86Z" style="fill:rgb(255,185,62);fill-rule:nonzero;"/>
    </g>
    <g transform="matrix(0.37016,0,0,0.37016,-206.704,-57.6234)">
        <path d="M1702.57,1599.31L1638.4,1687.08C1633.63,1693.61 1637,1704.23 1645.34,1708.85C1655.51,1714.47 1669.72,1721.58 1685.5,1727.24C1703.77,1733.8 1719.77,1737.48 1731.01,1739.5C1739.72,1741.08 1745.97,1733.97 1743.65,1725.12L1711.59,1602.44C1710.44,1598.04 1704.9,1596.13 1702.57,1599.31Z" style="fill:rgb(255,185,62);fill-rule:nonzero;"/>
    </g>
    <g transform="matrix(0.37016,0,0,0.37016,-206.704,-57.6234)">
        <path d="M1440.39,1049.94C1440.87,1047.99 1397.84,1069.4 1395.65,1071.82C1375.47,1094.21 1381.22,1123.42 1392.77,1123.71C1400.18,1123.88 1398.75,1136.2 1398.75,1136.2L1481.27,1101.29C1481.27,1101.29 1471.33,1043.35 1440.39,1049.94Z" style="fill:rgb(44,58,100);fill-rule:nonzero;"/>
    </g>
    <g transform="matrix(0.37016,0,0,0.37016,-206.704,-57.6234)">
        <path d="M1450.55,1054.46C1450.55,1054.46 1453.5,1022.32 1417.58,1022.32C1417.58,1022.32 1428.46,1025.27 1434.09,1031.17C1434.09,1031.17 1411.18,1017.73 1386.25,1038.39C1361.32,1059.06 1376.81,1110.88 1369.23,1120.73C1361.65,1130.57 1332.13,1132.54 1335.74,1164.35C1339.35,1196.17 1429.43,1236.02 1423.65,1262.35C1423.65,1262.35 1458.95,1210.45 1433.71,1186.77C1433.71,1186.77 1446.01,1198.36 1447.27,1212.14C1447.27,1212.14 1450.61,1185.24 1433.49,1176.63C1418.34,1169.02 1405.94,1141.18 1407.25,1136.2C1408.56,1131.22 1450.55,1054.46 1450.55,1054.46Z" style="fill:rgb(44,58,100);fill-rule:nonzero;"/>
    </g>
    <g transform="matrix(0.37016,0,0,0.37016,-206.704,-57.6234)">
        <path d="M1417.93,1205.7C1412.4,1179.03 1377.81,1170.76 1361.45,1192.54C1358.51,1196.46 1356.44,1201.09 1355.76,1206.55C1352.03,1236.83 1400.43,1360.14 1407.37,1371.3C1419.99,1391.63 1494.3,1461.31 1494.3,1461.31L1508,1453.01C1508,1453.01 1455.28,1363.77 1447.12,1355.42C1437.69,1345.76 1428.45,1256.34 1417.93,1205.7Z" style="fill:rgb(237,152,95);fill-rule:nonzero;"/>
    </g>
    <g transform="matrix(0.37016,0,0,0.37016,-206.704,-57.6234)">
        <path d="M1489.09,1453.04C1489.09,1453.04 1509.08,1439.92 1516.65,1440.77C1524.21,1441.61 1546.11,1447.91 1546.38,1451.13C1546.65,1454.35 1521.98,1456.36 1520.32,1458.12C1518.67,1459.88 1501.92,1471.06 1495.84,1467.56C1489.77,1464.05 1489.09,1453.04 1489.09,1453.04Z" style="fill:rgb(237,152,95);fill-rule:nonzero;"/>
    </g>
    <g transform="matrix(0.37016,0,0,0.37016,-206.704,-57.6234)">
        <path d="M1349.66,1749.55L1331.8,1746.93C1331.8,1746.93 1271.76,1699.22 1262.82,1610.18C1261.91,1601.12 1261.72,1591.92 1262.39,1582.65C1262.47,1581.58 1262.35,1580.52 1261.77,1579.62C1261.77,1579.61 1261.76,1579.6 1261.75,1579.59C1259.83,1576.64 1255.04,1569.26 1248.57,1558.77C1242.18,1548.43 1231.26,1528.88 1219.24,1506.94C1197.59,1467.43 1172.39,1420.18 1163.74,1405.13C1136.19,1357.17 1149.47,1324.92 1149.47,1324.92C1149.47,1324.92 1226.32,1317.32 1247.38,1298.9L1254.96,1310.59C1254.96,1310.59 1271.62,1384.3 1270.83,1384.64C1271.65,1387.15 1272.48,1389.7 1273.33,1392.3C1286.47,1432.86 1301.58,1483.55 1309.82,1524.84C1314.46,1548.07 1316.91,1568.31 1315.59,1582.1C1315.14,1586.83 1315.69,1594.1 1316.95,1603.07C1324.39,1655.98 1349.66,1749.55 1349.66,1749.55Z" style="fill:rgb(249,151,70);fill-rule:nonzero;"/>
    </g>
    <g transform="matrix(0.37016,0,0,0.37016,-206.704,-57.6234)">
        <path d="M1387.12,1772.15L1312.62,1772.15C1312.62,1772.15 1310.83,1760.79 1314.72,1752.18C1318.45,1743.91 1323.77,1743.65 1315.4,1730.69C1320.13,1735.57 1335.35,1737.58 1346.12,1736.13C1347.44,1738.27 1354.63,1752.63 1359.04,1755.8C1363.91,1759.29 1385.62,1758.05 1387.12,1772.15Z" style="fill:rgb(35,56,98);fill-rule:nonzero;"/>
    </g>
    <g transform="matrix(0.37016,0,0,0.37016,-206.704,-57.6234)">
        <path d="M1273.33,1392.3C1266.82,1428.19 1251.45,1487.93 1219.24,1506.94C1197.59,1467.43 1172.39,1420.18 1163.74,1405.13C1136.19,1357.17 1149.47,1324.92 1149.47,1324.92C1149.47,1324.92 1226.32,1317.32 1247.38,1298.9L1254.96,1310.59C1254.96,1310.59 1271.62,1384.3 1270.83,1384.64C1271.65,1387.15 1272.48,1389.7 1273.33,1392.3Z" style="fill:rgb(237,125,43);fill-rule:nonzero;"/>
    </g>
    <g transform="matrix(0.37016,0,0,0.37016,-206.704,-57.6234)">
        <path d="M1409.96,1189.15C1409.96,1189.15 1420.5,1200.11 1425.31,1213.23C1425.31,1213.23 1408.5,1261.48 1369.23,1267.54C1369.23,1267.54 1400.3,1189.13 1409.96,1189.15Z" style="fill:rgb(42,78,150);fill-rule:nonzero;"/>
    </g>
    <g transform="matrix(0.37016,0,0,0.37016,-206.704,-57.6234)">
        <path d="M1221.08,1330.46L1221.33,1316.53C1193.57,1320.03 1125.6,1283.35 1125.6,1283.35C1125.6,1283.35 1096.56,1302.67 1092.58,1357.83C1090.64,1384.76 1078.37,1498.64 1077.01,1532.64C1076.51,1544.97 1076.35,1553.76 1076.29,1557.28C1076.3,1557.29 1076.3,1557.3 1076.3,1557.31C1076.28,1558.38 1075.78,1559.33 1075.12,1560.18C1069.37,1567.48 1064.39,1575.22 1060.07,1583.24C1017.71,1662.06 1039.86,1769.15 1039.86,1769.15L1049.7,1766.65C1049.7,1766.65 1085.52,1655.63 1108.93,1607.61C1112.91,1599.46 1116.52,1593.13 1119.54,1589.46C1128.34,1578.77 1137.62,1560.61 1146.77,1538.76C1164.06,1497.45 1180.85,1442.94 1192.83,1400.73C1193.67,1400.88 1221.08,1330.46 1221.08,1330.46Z" style="fill:rgb(249,151,70);fill-rule:nonzero;"/>
    </g>
    <g transform="matrix(0.37016,0,0,0.37016,-206.704,-57.6234)">
        <path d="M1383.54,1237.46C1338.15,1227.04 1367.15,1163.27 1369.78,1164.39C1376.07,1163.11 1389.88,1152.07 1402.23,1130.51L1403.9,1131.95L1431.78,1156.39C1431.78,1156.39 1425.33,1165.9 1419.91,1175.21C1415.68,1182.5 1412.08,1189.68 1412.65,1192.14C1414.89,1193.91 1395.64,1240.24 1383.54,1237.46Z" style="fill:rgb(255,178,125);fill-rule:nonzero;"/>
    </g>
    <g transform="matrix(0.37016,0,0,0.37016,-206.704,-57.6234)">
        <path d="M1431.78,1156.4C1431.78,1156.4 1425.33,1165.89 1419.91,1175.21C1402.58,1164.53 1402.56,1143.08 1403.9,1131.96L1431.78,1156.4Z" style="fill:rgb(237,152,95);fill-rule:nonzero;"/>
    </g>
    <g transform="matrix(0.37016,0,0,0.37016,-206.704,-57.6234)">
        <path d="M1432.55,1168.64C1432.55,1168.64 1390.47,1145.22 1405.45,1119.24C1420.44,1093.26 1425.1,1072.74 1452.6,1086.59C1480.1,1100.45 1479.56,1113.34 1476.66,1123.23C1473.77,1133.12 1443.88,1174.06 1432.55,1168.64Z" style="fill:rgb(255,178,125);fill-rule:nonzero;"/>
    </g>
    <g transform="matrix(0.37016,0,0,0.37016,-206.704,-57.6234)">
        <path d="M1483.77,1108.08C1481.85,1096.54 1475.99,1095.44 1471.9,1096.21C1456.36,1070.51 1430.97,1080.54 1430.97,1080.54C1417.41,1097.56 1397.8,1100.46 1397.8,1100.46C1397.8,1100.46 1402.69,1109.55 1422.81,1115.17C1428.95,1116.89 1435.93,1115.85 1442.65,1113.59C1428.7,1121.37 1414.1,1124.35 1414.1,1124.35C1440.61,1126.78 1465.84,1102.54 1468.45,1099.95C1469.68,1103.7 1471.82,1111.57 1470.54,1117.32C1468.79,1125.13 1461.86,1139.28 1466.09,1141.11C1466.09,1141.11 1486.66,1125.38 1483.77,1108.08Z" style="fill:rgb(44,58,100);fill-rule:nonzero;"/>
    </g>
    <g transform="matrix(0.37016,0,0,0.37016,-206.704,-57.6234)">
        <path d="M1099.11,1772.15L1024.61,1772.15C1024.61,1772.15 1022.82,1760.79 1026.71,1752.18C1030.44,1743.91 1036.28,1740.16 1034.88,1730.16C1039.62,1735.03 1047.33,1740.49 1058.1,1739.04C1059.42,1741.18 1066.62,1752.63 1071.03,1755.8C1075.9,1759.29 1097.61,1758.05 1099.11,1772.15Z" style="fill:rgb(35,56,98);fill-rule:nonzero;"/>
    </g>
    <g transform="matrix(0.37016,0,0,0.37016,-206.704,-57.6234)">
        <path d="M1388.88,1288.02C1379.29,1291.37 1365.84,1293.2 1352.07,1294.69C1332.48,1296.83 1312.26,1298.29 1301.66,1302.52C1297.8,1304.06 1295.21,1305.96 1294.41,1308.4C1289.81,1322.21 1269.57,1343.52 1269.57,1343.52C1139.85,1337.61 1125.6,1283.35 1125.6,1283.35C1212.89,1181.86 1360.67,1152.48 1360.67,1152.48C1360.67,1152.48 1371.22,1148 1397.81,1169.13C1415.55,1183.23 1413.21,1188.65 1413.21,1188.65C1413.21,1188.65 1417.09,1278.18 1388.88,1288.02Z" style="fill:rgb(42,78,150);fill-rule:nonzero;"/>
    </g>
    <g transform="matrix(0.37016,0,0,0.37016,-206.704,-57.6234)">
        <path d="M1352.07,1294.69C1332.48,1296.83 1312.26,1298.29 1301.66,1302.52C1297.33,1237.82 1327.87,1189.15 1327.87,1189.15C1327.87,1189.15 1347.78,1270.21 1352.07,1294.69Z" style="fill:rgb(30,61,112);fill-rule:nonzero;"/>
    </g>
    <g transform="matrix(0.37016,0,0,0.37016,-206.704,-57.6234)">
        <path d="M1372.24,1176.63C1372.24,1176.63 1323.14,1181.49 1319.2,1213.39C1315.27,1245.29 1366.27,1375.23 1373.58,1387C1386.88,1408.42 1465.19,1481.84 1465.19,1481.84L1479.62,1473.1C1479.62,1473.1 1424.08,1379.06 1415.47,1370.26C1401.97,1356.45 1388.86,1187.69 1372.24,1176.63Z" style="fill:rgb(255,178,125);fill-rule:nonzero;"/>
    </g>
    <g transform="matrix(0.37016,0,0,0.37016,-206.704,-57.6234)">
        <path d="M1320.62,1232.58C1320.75,1233.31 1365.93,1247.34 1395.01,1232.58C1395.01,1232.58 1401.23,1165.49 1366.52,1169.13C1331.8,1172.77 1311.25,1183.71 1310.37,1200.33C1309.5,1216.95 1320.62,1232.58 1320.62,1232.58Z" style="fill:rgb(42,78,150);fill-rule:nonzero;"/>
    </g>
    <g transform="matrix(0.37016,0,0,0.37016,-206.704,-57.6234)">
        <path d="M1460.73,1472.52C1460.73,1472.52 1478.34,1456.34 1485.94,1455.96C1493.55,1455.57 1516.18,1458.26 1516.96,1461.4C1517.74,1464.53 1493.72,1470.49 1492.37,1472.5C1491.02,1474.5 1476.29,1488.24 1469.73,1485.75C1463.17,1483.27 1460.73,1472.52 1460.73,1472.52Z" style="fill:rgb(255,178,125);fill-rule:nonzero;"/>
    </g>
</svg>
