<?xml version="1.0" encoding="UTF-8" standalone="no"?>
<!DOCTYPE svg PUBLIC "-//W3C//DTD SVG 1.1//EN" "http://www.w3.org/Graphics/SVG/1.1/DTD/svg11.dtd">
<svg width="100%" height="100%" viewBox="0 0 837 535" version="1.1" xmlns="http://www.w3.org/2000/svg" xmlns:xlink="http://www.w3.org/1999/xlink" xml:space="preserve" xmlns:serif="http://www.serif.com/" style="fill-rule:evenodd;clip-rule:evenodd;stroke-linejoin:round;stroke-miterlimit:2;">
    <g transform="matrix(0.41669,0,0,0.41669,-214.12,-92.4521)">
        <path d="M1626.84,1438.57C1559.22,1427.68 1508.17,1451.37 1459.08,1444.56C1419.93,1439.13 1399.53,1399.53 1346.92,1388.31C1359.43,1380.93 1374.01,1371.7 1380.98,1364.99C1394.52,1351.95 1413.96,1325.87 1380.98,1324.84C1357.25,1324.1 1338.76,1363.63 1330.26,1385.87C1322.47,1385.22 1314.04,1385.17 1304.85,1385.85C1315.71,1350.85 1336.89,1283.11 1342.07,1270.1C1349.11,1252.39 1319.51,1193.35 1284.62,1259.61C1260.14,1306.08 1276.76,1359.79 1288.87,1387.72C1279.31,1389.26 1270.29,1391.48 1261.67,1394.18C1232.84,1328.39 1141.11,1140.84 1041.68,1164.15C933.275,1189.55 1165.52,1315.64 1224.09,1409.12C1176.24,1431.3 1134.2,1458.24 1061.52,1438.57C868.383,1386.28 853.063,1503.93 853.063,1503.93L1716.17,1504.22C1716.17,1504.22 1694.46,1449.45 1626.84,1438.57Z" style="fill:rgb(172,210,154);fill-rule:nonzero;"/>
    </g>
    <g transform="matrix(0.41669,0,0,0.41669,-214.12,-92.4521)">
        <path d="M1392.05,1015.23C1392.93,1023.53 1404.69,1023.23 1417.97,1021.24C1431.25,1019.25 1427.82,1022.74 1446.5,1022.38C1465.17,1022.02 1471.41,1015.64 1472.22,1012.94C1472.95,1010.55 1463.89,1008.85 1454.19,1006.83C1452.97,1006.58 1451.75,1006.31 1450.52,1006.05C1439.59,1003.65 1432.13,995.773 1422.62,988.993C1413.6,982.571 1407.53,953.139 1407.53,953.139L1380.98,952.982C1380.98,952.982 1389.32,979.599 1393.67,988.855C1396.22,994.3 1393.5,1001.29 1392.64,1006.53C1392.18,1009.38 1391.73,1012.3 1392.05,1015.23Z" style="fill:rgb(255,176,123);fill-rule:nonzero;"/>
    </g>
    <g transform="matrix(0.41669,0,0,0.41669,-214.12,-92.4521)">
        <path d="M1417.97,1021.24C1431.25,1019.25 1427.82,1022.74 1446.5,1022.38C1465.17,1022.02 1471.41,1015.64 1472.22,1012.94C1472.95,1010.55 1463.89,1008.85 1454.19,1006.83L1454.08,1007.01C1454.08,1007.01 1442.28,1013.86 1426.85,1012.83C1414.28,1011.99 1401.32,1007.18 1392.64,1006.53C1392.18,1009.38 1391.73,1012.3 1392.05,1015.23C1392.93,1023.53 1404.69,1023.23 1417.97,1021.24Z" style="fill:rgb(54,93,164);fill-rule:nonzero;"/>
    </g>
    <g transform="matrix(0.41669,0,0,0.41669,-214.12,-92.4521)">
        <path d="M1184.46,1013.91C1185.04,1022.24 1196.79,1022.39 1210.14,1020.9C1223.49,1019.41 1219.93,1022.77 1238.61,1023.11C1257.28,1023.46 1263.75,1017.31 1264.67,1014.65C1265.48,1012.28 1256.5,1010.25 1246.88,1007.86C1245.67,1007.57 1244.46,1007.25 1243.25,1006.94C1232.41,1004.13 1225.25,995.98 1216,988.848C1207.24,982.09 1214.45,954.06 1214.45,954.06L1194.3,944.545C1194.3,944.545 1191.53,973.434 1190.03,988.045C1189.42,994.028 1186.44,1000.04 1185.39,1005.25C1184.82,1008.08 1184.26,1010.97 1184.46,1013.91Z" style="fill:rgb(255,176,123);fill-rule:nonzero;"/>
    </g>
    <g transform="matrix(0.41669,0,0,0.41669,-214.12,-92.4521)">
        <path d="M1210.14,1020.9C1223.49,1019.41 1219.93,1022.77 1238.61,1023.11C1257.28,1023.46 1263.75,1017.31 1264.67,1014.65C1265.48,1012.28 1256.5,1010.25 1246.88,1007.86L1246.77,1008.04C1246.77,1008.04 1234.71,1014.44 1219.33,1012.82C1206.8,1011.51 1194.03,1006.22 1185.39,1005.25C1184.82,1008.08 1184.26,1010.97 1184.46,1013.91C1185.04,1022.24 1196.79,1022.39 1210.14,1020.9Z" style="fill:rgb(54,93,164);fill-rule:nonzero;"/>
    </g>
    <g transform="matrix(0.41669,0,0,0.41669,-214.12,-92.4521)">
        <path d="M1229.72,597.912C1229.72,597.912 1224.14,624.934 1218.55,761.971C1218.55,761.971 1208.18,787.345 1200.66,818.37C1193.14,849.395 1187.84,978.852 1187.84,978.852C1187.84,978.852 1190.84,983.174 1199.94,983.72C1207.37,984.166 1213.16,980.907 1213.16,980.907C1213.16,980.907 1265.43,811.35 1290.87,745.523C1316.32,679.695 1331.23,585.7 1331.23,585.7L1229.72,597.912Z" style="fill:rgb(43,71,139);fill-rule:nonzero;"/>
    </g>
    <g transform="matrix(0.41669,0,0,0.41669,-214.12,-92.4521)">
        <path d="M1292.59,609.481C1292.59,609.481 1296.71,636.764 1338.91,767.261C1338.91,767.261 1337.97,794.653 1341.66,826.363C1345.35,858.073 1388.07,982.92 1388.07,982.92C1388.07,982.92 1393.74,984.891 1402.25,982.645C1410.16,980.557 1416.37,975.797 1416.37,975.797C1416.37,975.797 1399.99,797.353 1401.07,726.787C1402.15,656.223 1383.59,562.879 1383.59,562.879L1292.59,609.481Z" style="fill:rgb(43,71,139);fill-rule:nonzero;"/>
    </g>
    <g transform="matrix(0.41669,0,0,0.41669,-214.12,-92.4521)">
        <path d="M1367.33,231.538C1360.71,227.328 1352.58,226.498 1346.85,226.55C1348.4,225.106 1351.32,224.698 1351.32,224.698C1347.8,223.995 1339.73,227.11 1339.73,227.11C1291.46,205.683 1280.09,277.772 1280.29,294.663C1280.47,311.55 1279.63,330.938 1254.3,344.811C1204.47,372.107 1242.67,426.02 1242.67,426.02C1233.7,451.758 1266.91,483.292 1266.91,483.292C1266.34,469.623 1329.09,382.539 1362.92,362.672C1371.48,351.332 1375.35,330.736 1375.64,329.114C1373.44,345.488 1370.17,354.57 1367.4,359.638C1396.41,335.497 1384.86,242.693 1367.33,231.538Z" style="fill:rgb(198,84,71);fill-rule:nonzero;"/>
    </g>
    <g transform="matrix(0.41669,0,0,0.41669,-214.12,-92.4521)">
        <path d="M1356.81,353.345C1356.98,353.422 1340.99,361.727 1328.95,358.437C1317.63,355.352 1310.23,340.671 1310.39,340.638C1315.18,339.686 1316.57,333.098 1316.46,304.793L1318.63,305.218L1353.76,312.18L1355.07,312.435C1355.07,312.435 1354.24,323.901 1354.21,334.705C1354.2,336.991 1354.24,339.243 1354.32,341.352C1354.56,347.624 1355.26,352.614 1356.81,353.345Z" style="fill:rgb(255,176,123);fill-rule:nonzero;"/>
    </g>
    <g transform="matrix(0.41669,0,0,0.41669,-214.12,-92.4521)">
        <path d="M1354.21,334.705C1354.2,336.991 1354.24,339.243 1354.32,341.352C1333.89,340.527 1322.11,317.16 1317.66,306.909L1353.76,312.18L1355.07,312.435C1355.07,312.435 1354.24,323.901 1354.21,334.705Z" style="fill:rgb(234,142,80);fill-rule:nonzero;"/>
    </g>
    <g transform="matrix(0.41669,0,0,0.41669,-214.12,-92.4521)">
        <path d="M1314.87,301.252C1314.87,301.252 1304.18,284.368 1301.62,269.931C1299.78,259.624 1305.03,221.417 1343.43,226.92C1343.43,226.92 1354.58,228.019 1365.06,235.098C1373.4,240.728 1385.43,252.882 1371.97,286.222L1368.48,297.485L1314.87,301.252Z" style="fill:rgb(198,84,71);fill-rule:nonzero;"/>
    </g>
    <g transform="matrix(0.41669,0,0,0.41669,-214.12,-92.4521)">
        <path d="M1357.22,329.41C1357.22,329.41 1309.38,323.086 1313.78,293.358C1318.18,263.629 1314.96,242.792 1345.69,245.572C1376.42,248.352 1380.66,260.571 1381.61,270.851C1382.55,281.131 1369.77,330.288 1357.22,329.41Z" style="fill:rgb(255,176,123);fill-rule:nonzero;"/>
    </g>
    <g transform="matrix(0.41669,0,0,0.41669,-214.12,-92.4521)">
        <path d="M1367.53,248.082C1367.53,248.082 1349.27,281.007 1328.45,283.175C1307.63,285.344 1299.74,278.675 1299.74,278.675C1299.74,278.675 1316.94,268.75 1323.31,247.898C1323.31,247.898 1360.15,230.016 1367.53,248.082Z" style="fill:rgb(198,84,71);fill-rule:nonzero;"/>
    </g>
    <g transform="matrix(0.41669,0,0,0.41669,-214.12,-92.4521)">
        <path d="M1363.87,250.431C1363.87,250.431 1372.47,259.67 1373.72,267.593C1374.97,275.517 1373.72,291.258 1378.34,291.405C1378.34,291.405 1391.71,269.169 1382.65,254.113C1373.04,238.148 1363.87,250.431 1363.87,250.431Z" style="fill:rgb(198,84,71);fill-rule:nonzero;"/>
    </g>
    <g transform="matrix(0.41669,0,0,0.41669,-214.12,-92.4521)">
        <path d="M1681.54,654.335C1671.5,633.078 1643.6,615.489 1620.1,615.481C1602.74,615.477 1587.43,621.4 1575.58,631.051C1568.8,636.568 1558.59,632.93 1556.75,624.388L1536.17,528.799C1533.17,514.861 1519.44,505.992 1505.5,508.992L1172.59,580.643C1158.97,583.574 1150.31,596.989 1153.24,610.608L1224.81,943.156C1226.86,952.668 1233.84,959.844 1242.48,962.601L1238.11,963.84L1251.04,963.84L1251.14,963.821C1252.72,963.775 1254.32,963.593 1255.93,963.248L1263.17,961.688L1348.62,943.299C1360.61,940.719 1365.47,926.213 1357.42,916.965C1349.63,908.032 1344.03,896.968 1341.65,884.434C1334.92,849.115 1356.76,814.129 1391.46,804.727C1430.06,794.269 1469.04,818.365 1477.35,856.959C1480.47,871.478 1478.8,885.912 1473.39,898.61C1471.29,903.543 1473.02,908.666 1476.63,911.586L1471.65,914.018L1483.2,914.011L1483.2,914.01C1484.06,914.031 1484.95,913.957 1485.86,913.761L1587.88,891.804C1601.83,888.802 1610.7,875.065 1607.7,861.121L1587.25,766.121C1585.36,757.33 1593.38,749.625 1602.09,751.863C1612.16,754.451 1622.97,754.8 1633.82,752.464C1676.51,743.276 1701.47,696.554 1681.54,654.335Z" style="fill:rgb(216,103,19);fill-rule:nonzero;"/>
    </g>
    <g transform="matrix(0.41669,0,0,0.41669,-214.12,-92.4521)">
        <path d="M1608.34,615.481C1590.98,615.477 1575.67,621.4 1563.82,631.051C1557.05,636.568 1546.83,632.93 1544.99,624.388L1524.42,528.799C1521.42,514.861 1507.69,505.992 1493.75,508.992L1160.84,580.643C1147.22,583.574 1138.55,596.989 1141.49,610.608L1213.06,943.156C1216.1,957.296 1230.03,966.291 1244.17,963.248L1336.86,943.299C1348.85,940.719 1353.72,926.213 1345.66,916.965C1337.88,908.032 1332.28,896.968 1329.89,884.434C1323.17,849.116 1345,814.129 1379.71,804.727C1418.31,794.269 1457.29,818.365 1465.59,856.959C1468.72,871.479 1467.04,885.912 1461.63,898.61C1458.12,906.861 1465.34,915.647 1474.11,913.761L1576.13,891.804C1590.07,888.802 1598.94,875.065 1595.94,861.121L1575.5,766.121C1573.6,757.33 1581.62,749.625 1590.33,751.863C1600.4,754.451 1611.21,754.8 1622.07,752.464C1664.76,743.276 1689.71,696.554 1669.78,654.335C1659.74,633.078 1631.85,615.489 1608.34,615.481Z" style="fill:rgb(241,163,79);fill-rule:nonzero;"/>
    </g>
    <g transform="matrix(0.41669,0,0,0.41669,-214.12,-92.4521)">
        <path d="M1486.53,489.057C1486.53,489.057 1507.3,492.46 1512.74,505.964C1518.18,519.468 1510.58,528.611 1507.66,528.58C1504.74,528.549 1499.13,526.389 1496.51,519.385C1493.88,512.383 1486.53,489.057 1486.53,489.057Z" style="fill:rgb(255,176,123);fill-rule:nonzero;"/>
    </g>
    <g transform="matrix(0.41669,0,0,0.41669,-214.12,-92.4521)">
        <path d="M1200.66,549.314C1200.66,549.314 1223.97,549.284 1232.36,563.062C1240.74,576.84 1234.09,588.205 1230.89,588.699C1227.69,589.192 1221.17,587.842 1217.04,580.662C1212.91,573.481 1200.66,549.314 1200.66,549.314Z" style="fill:rgb(255,176,123);fill-rule:nonzero;"/>
    </g>
    <g transform="matrix(0.41669,0,0,0.41669,-214.12,-92.4521)">
        <path d="M1487.11,504.73C1485.05,504.289 1476.01,503.227 1464.52,501.418C1443.35,498.097 1413.85,492.252 1403.95,483.12C1401.27,480.641 1395.02,466.999 1388.53,451.36C1381.97,485.983 1381.6,512.538 1383.34,532.755L1240.3,563.542C1252.56,538.746 1271.55,508.001 1267.99,483.12C1266.67,473.896 1261.61,461.238 1259.72,447.019C1259.57,445.796 1259.43,444.573 1259.32,443.332C1239.26,459.846 1216.09,478.066 1215.53,481.711C1214.61,487.818 1230.23,555.442 1230.23,555.442C1226.35,564.37 1209.5,562.492 1209.5,562.492C1193.72,551.221 1170.5,487.342 1172.36,473.191C1174.22,459.039 1231.78,378.393 1245.71,359.118C1259.47,340.073 1309.71,340.549 1310.92,340.558L1310.95,340.558C1350.9,364.546 1354.5,344.609 1354.5,344.609C1354.5,344.609 1390.55,351.465 1396.74,362.108C1402.94,372.76 1430.11,453.509 1432.03,456.354C1436.05,462.301 1501.72,486.094 1502.9,492.982C1504.09,499.871 1493,505.979 1487.11,504.73Z" style="fill:rgb(128,189,204);fill-rule:nonzero;"/>
    </g>
    <g transform="matrix(0.41669,0,0,0.41669,-214.12,-92.4521)">
        <path d="M1290.17,552.855L1240.3,563.542C1252.72,538.815 1269.04,508.02 1265.47,483.293C1264.14,474.062 1261.14,463.137 1259.7,448.854C1259.56,447.477 1259.32,443.332 1259.32,443.332C1259.32,443.332 1294.64,471.129 1295.26,501.211C1295.59,516.816 1292.86,537.231 1290.17,552.855Z" style="fill:rgb(95,154,168);fill-rule:nonzero;"/>
    </g>
    <g transform="matrix(0.41669,0,0,0.41669,-214.12,-92.4521)">
        <path d="M1465.84,501.604C1444.42,498.277 1414.55,492.432 1404.53,483.296C1401.82,480.814 1395.49,467.158 1388.92,451.499C1388.92,451.499 1386.62,426.328 1393.2,427.269C1399.78,428.208 1409.46,472.854 1416.37,475.673C1422.55,478.201 1456.73,491.322 1465.84,501.604Z" style="fill:rgb(95,154,168);fill-rule:nonzero;"/>
    </g>
    <g transform="matrix(0.41669,0,0,0.41669,-214.12,-92.4521)">
        <path d="M2521.1,1460.52C2518.08,1470.7 2504.14,1477.48 2502.26,1489.92C2501.34,1495.99 2499.08,1500.7 2496.2,1503.94L2452.8,1503.94C2453.24,1501.55 2455.14,1498.98 2460.78,1497.75C2472.84,1495.11 2477.38,1480.5 2476.64,1466.93C2476.32,1461.25 2476.47,1454.76 2476.75,1449.15C2477.13,1441.38 2477.77,1435.28 2477.77,1435.28L2503.39,1429.25L2506.08,1432.71L2508.66,1436.04C2508.66,1436.04 2524.11,1450.35 2521.1,1460.52Z" style="fill:rgb(44,58,100);fill-rule:nonzero;"/>
    </g>
    <g transform="matrix(0.41669,0,0,0.41669,-214.12,-92.4521)">
        <path d="M2319,1503.94L2231.19,1503.94C2233.18,1501.61 2236.55,1499.36 2242.26,1498.43C2255.77,1496.24 2279.17,1488.4 2284.39,1471.12C2284.56,1470.57 2284.71,1470 2284.84,1469.42C2288.98,1450.96 2319.13,1475.08 2319.13,1475.08C2319.13,1475.08 2319.22,1475.82 2319.36,1477.07C2319.89,1482.27 2321.06,1496.37 2319,1503.94Z" style="fill:rgb(44,58,100);fill-rule:nonzero;"/>
    </g>
    <g transform="matrix(0.41669,0,0,0.41669,-214.12,-92.4521)">
        <path d="M2245.85,1014.77C2245.85,1014.77 2250.42,1071.89 2255.81,1140.55C2263.12,1233.82 2271.91,1348.39 2272.78,1370.09C2274.29,1407.78 2280.32,1468.06 2280.32,1468.06C2280.32,1468.06 2294.63,1482.38 2323.28,1476.35C2323.28,1476.35 2348.8,1390.29 2356.1,1299.24C2356.21,1297.74 2356.32,1296.24 2356.44,1294.74C2363.22,1202.04 2373.76,1006.86 2373.76,1006.86L2245.85,1014.77Z" style="fill:rgb(53,72,139);fill-rule:nonzero;"/>
    </g>
    <g transform="matrix(0.41669,0,0,0.41669,-214.12,-92.4521)">
        <path d="M2245.85,1014.77C2245.85,1014.77 2250.42,1071.89 2255.81,1140.55L2356.1,1299.24C2356.21,1297.74 2356.32,1296.24 2356.44,1294.74C2363.22,1202.04 2373.76,1006.86 2373.76,1006.86L2245.85,1014.77Z" style="fill:rgb(44,58,100);fill-rule:nonzero;"/>
    </g>
    <g transform="matrix(0.41669,0,0,0.41669,-214.12,-92.4521)">
        <path d="M2266.75,1021.55C2266.75,1021.55 2349.27,1228.42 2403.53,1325.63C2457.79,1422.85 2474.75,1449.98 2474.75,1449.98C2474.75,1449.98 2505.84,1437.54 2508.66,1429.06C2508.66,1429.06 2487.91,1241.38 2451.58,1195.63C2431.04,1169.78 2406.92,1092.2 2405.79,1065.07C2404.66,1037.94 2398.45,984.247 2398.45,984.247L2266.75,1021.55Z" style="fill:rgb(53,72,139);fill-rule:nonzero;"/>
    </g>
    <g transform="matrix(0.41669,0,0,0.41669,-214.12,-92.4521)">
        <path d="M2309.08,702.234C2305.41,680.571 2305.29,667.73 2305.29,667.73L2347.16,633.988C2345.61,680.385 2375.34,702.695 2375.34,702.695C2375.34,702.695 2319.54,730.159 2287.29,719.987C2287.29,719.987 2295.23,709.839 2309.08,702.234Z" style="fill:rgb(147,92,47);fill-rule:nonzero;"/>
    </g>
    <g transform="matrix(0.41669,0,0,0.41669,-214.12,-92.4521)">
        <path d="M2295.43,666.965C2295.43,666.965 2348.7,675.813 2353.7,642.559C2358.7,609.304 2368.94,588.049 2335.14,580.993C2301.35,573.938 2292.82,585.632 2288.45,596.325C2284.08,607.02 2281.71,663.806 2295.43,666.965Z" style="fill:rgb(161,109,60);fill-rule:nonzero;"/>
    </g>
    <g transform="matrix(0.41669,0,0,0.41669,-214.12,-92.4521)">
        <path d="M2108.36,735.518L2097.02,728.497C2097.02,728.497 2082.88,707.625 2058.73,720.593C2058.73,720.593 2049.17,726.691 2055.58,731.799C2062.01,736.905 2060.28,734.02 2069.17,741.418C2078.07,748.815 2089.57,751.458 2097,747.38L2106.52,746.48L2108.36,735.518Z" style="fill:rgb(161,109,60);fill-rule:nonzero;"/>
    </g>
    <g transform="matrix(0.41669,0,0,0.41669,-214.12,-92.4521)">
        <path d="M2094.9,737.705C2097.82,728.567 2099.21,727.761 2099.21,727.761C2099.21,727.761 2190.91,738.597 2199.56,739.236C2208.2,739.876 2328.27,715.138 2328.27,715.138L2384.96,783.98C2384.96,783.98 2217.81,790.282 2195.94,788.233C2159.79,784.846 2094.23,751.19 2094.23,751.19C2094.23,751.19 2092.6,744.882 2094.9,737.705Z" style="fill:rgb(211,120,47);fill-rule:nonzero;"/>
    </g>
    <g transform="matrix(0.41669,0,0,0.41669,-214.12,-92.4521)">
        <path d="M2404.74,994.818C2404.9,998.371 2397.58,1002.27 2394.4,1003.7C2370.46,1014.43 2348.17,1021.89 2322.98,1024.31C2293.1,1027.38 2257.79,1020.66 2245.68,1020.82C2244.38,1020.82 2243.26,1020.34 2242.29,1019.53C2241.48,1018.88 2240.83,982.383 2241.48,936.366C2241.48,934.59 2241.48,932.645 2241.64,930.868L2241.64,930.229C2241.69,925.436 2241.76,920.566 2241.87,915.65C2242.17,902.201 2242.67,888.394 2243.26,874.672C2244.13,854.445 2245.33,834.565 2247,816.953C2248.74,798.559 2250.94,782.628 2253.75,771.33C2260.21,745.332 2275.07,728.208 2288.63,715.613L2299.77,705.772C2310.91,708.028 2322.71,707.379 2334.49,701.571C2347.25,695.273 2361.14,688.487 2363.39,690.104C2380.61,702.972 2392.2,732.184 2398.14,769.31C2401.34,789.291 2402.9,811.558 2402.81,834.811C2402.78,843.729 2402.5,852.781 2401.99,861.917C2399.11,910.951 2402.06,953.463 2403.75,978.172C2404.24,985.277 2404.63,990.927 2404.74,994.818Z" style="fill:rgb(230,157,67);fill-rule:nonzero;"/>
    </g>
    <g transform="matrix(0.41669,0,0,0.41669,-214.12,-92.4521)">
        <path d="M2121.58,541.526L1784.74,488.03C1770.41,485.755 1756.96,495.521 1754.68,509.845L1739.77,603.73C1739.08,608.079 1740.19,620.301 1740.19,620.301L1752.33,622.107C1753.02,622.258 1753.72,622.364 1754.43,622.421C1756.63,622.598 1758.92,622.324 1761.21,621.497C1772.38,617.454 1784.75,616.225 1797.33,618.533C1832.79,625.035 1857.6,658.12 1853.82,693.971C1849.62,733.848 1812.98,761.571 1773.89,755.363C1759.18,753.027 1746.29,746.232 1736.38,736.576C1734.46,734.703 1732.14,733.714 1729.81,733.474L1717.1,731.567L1701.28,846.094C1699.04,860.219 1708.67,873.486 1722.8,875.73L1819.02,891.013C1827.93,892.426 1832.23,902.713 1826.98,910.046C1820.92,918.525 1816.68,928.506 1814.93,939.502C1808.06,982.744 1842.71,1022.99 1889.4,1019.64C1912.91,1017.96 1939.46,998.244 1947.98,976.268C1954.27,960.039 1954.27,943.578 1949.54,929.006C1946.83,920.675 1953.94,912.438 1962.59,913.813L2059.41,929.189C2073.53,931.433 2086.8,921.805 2089.04,907.686L2142.59,570.47C2144.78,556.676 2135.38,543.718 2121.58,541.526Z" style="fill:rgb(74,117,203);fill-rule:nonzero;"/>
    </g>
    <g transform="matrix(0.41669,0,0,0.41669,-214.12,-92.4521)">
        <path d="M2364.63,768.313C2364.63,768.313 2338.81,888.807 2241.87,915.65C2242.17,902.201 2242.67,888.394 2243.26,874.672C2244.13,854.445 2245.33,834.565 2247,816.953C2248.73,816.06 2250.35,815.364 2251.84,814.875C2284.73,804.028 2364.63,768.313 2364.63,768.313Z" style="fill:rgb(211,120,47);fill-rule:nonzero;"/>
    </g>
    <g transform="matrix(0.41669,0,0,0.41669,-214.12,-92.4521)">
        <path d="M1935.52,974.388C1941.81,958.159 1941.82,941.699 1937.09,927.126C1934.38,918.795 1941.48,910.56 1950.14,911.933L2046.96,927.311C2061.08,929.553 2074.34,919.924 2076.58,905.807L2130.14,568.59C2132.33,554.796 2122.92,541.838 2109.13,539.647L1772.28,486.15C1757.96,483.876 1744.51,493.643 1742.23,507.965L1727.32,601.852C1725.39,613.997 1737.19,623.802 1748.76,619.617C1759.92,615.574 1772.3,614.346 1784.88,616.653C1820.34,623.154 1845.14,656.24 1841.37,692.091C1837.17,731.968 1800.53,759.69 1761.43,753.482C1746.73,751.146 1733.84,744.353 1723.92,734.695C1717.48,728.42 1706.65,731.992 1705.24,740.874L1688.83,844.214C1686.59,858.338 1696.22,871.607 1710.34,873.85L1806.57,889.133C1815.47,890.547 1819.78,900.833 1814.53,908.166C1808.46,916.646 1804.22,926.625 1802.48,937.623C1795.61,980.864 1830.26,1021.11 1876.95,1017.76C1900.46,1016.08 1927.01,996.363 1935.52,974.388Z" style="fill:rgb(105,157,238);fill-rule:nonzero;"/>
    </g>
    <g transform="matrix(0.41669,0,0,0.41669,-214.12,-92.4521)">
        <path d="M2108.75,813.204L2094.9,810.913C2094.9,810.913 2079.11,788.065 2051.59,800.883C2051.59,800.883 2040.68,806.987 2047.9,812.701C2055.11,818.416 2053.19,815.266 2063.19,823.526C2073.18,831.787 2086.2,835.085 2094.65,831.048L2105.45,830.486L2108.75,813.204Z" style="fill:rgb(161,109,60);fill-rule:nonzero;"/>
    </g>
    <g transform="matrix(0.41669,0,0,0.41669,-214.12,-92.4521)">
        <path d="M2098.16,820.242C2098.61,810.051 2104.04,808.964 2104.04,808.964C2104.04,808.964 2208.95,802.024 2218,800.27C2227.05,798.514 2310.61,729.283 2310.61,729.283C2310.61,729.283 2342.92,700.24 2365.56,710.04C2385.24,718.556 2391.4,735.357 2392.39,750.809C2393.57,769.222 2383.18,786.435 2366.46,794.242C2328.94,811.77 2253.89,846.176 2236.8,849.144C2198.76,855.75 2100.98,834.575 2100.98,834.575C2100.98,834.575 2097.81,828.247 2098.16,820.242Z" style="fill:rgb(230,157,67);fill-rule:nonzero;"/>
    </g>
    <g transform="matrix(0.41669,0,0,0.41669,-214.12,-92.4521)">
        <path d="M2288.45,596.325C2288.45,596.325 2266.83,580.294 2280.93,555.386C2280.93,555.386 2297.93,561.025 2322.09,555.386C2346.25,549.747 2367.87,557.736 2370.69,566.194C2370.69,566.194 2380.09,569.955 2381.03,584.053C2381.97,598.151 2353.7,642.559 2353.7,642.559C2353.7,642.559 2347.66,635.042 2349.3,629.873C2350.95,624.703 2356.12,613.189 2349.77,613.189C2343.43,613.189 2341.32,622.589 2338.73,618.829C2336.15,615.069 2340.85,599.326 2333.33,596.741C2325.81,594.156 2296.91,601.079 2288.45,596.325Z" style="fill:rgb(44,58,100);fill-rule:nonzero;"/>
    </g>
    <g transform="matrix(0.41669,0,0,0.41669,-214.12,-92.4521)">
        <path d="M1553.67,1491.94L1458.45,1059.61L1484.66,1059.61C1490.88,1059.61 1495.96,1054.53 1495.96,1048.31L1495.96,1033.71C1495.96,1027.5 1490.88,1022.42 1484.66,1022.42L1152.17,1022.42C1145.96,1022.42 1140.88,1027.5 1140.88,1033.71L1140.88,1048.31C1140.88,1054.53 1145.96,1059.61 1152.17,1059.61L1185.92,1059.61L1090.7,1491.94C1089.42,1497.75 1093.11,1503.56 1098.9,1504.84C1104.7,1506.13 1110.49,1502.42 1111.77,1496.61L1208.02,1059.61L1436.35,1059.61L1532.6,1496.61C1533.88,1502.42 1539.67,1506.13 1545.46,1504.84C1551.26,1503.56 1554.95,1497.75 1553.67,1491.94Z" style="fill:rgb(195,224,244);fill-rule:nonzero;"/>
    </g>
    <g transform="matrix(0.41669,0,0,0.41669,-214.12,-92.4521)">
        <path d="M2185.11,1227.18C2149.86,1193.35 2022.99,1406.83 2022.99,1406.83C2022.99,1406.83 2220.35,1261.02 2185.11,1227.18Z" style="fill:rgb(172,210,154);fill-rule:nonzero;"/>
    </g>
    <g transform="matrix(0.41669,0,0,0.41669,-214.12,-92.4521)">
        <path d="M2180.88,1325.87C2149.68,1313.39 2049.97,1418.51 2027.51,1442.78C2010.33,1440.5 1991.48,1439.02 1970.82,1438.65C1812.93,1435.83 1741.31,1507.34 1741.31,1507.34L2181.76,1508.84C2181.76,1508.84 2142.75,1459.3 2032.06,1443.41C2059.11,1430.64 2139.1,1393.43 2168.19,1386.28C2203.44,1377.61 2216.12,1339.96 2180.88,1325.87Z" style="fill:rgb(172,210,154);fill-rule:nonzero;"/>
    </g>
    <g transform="matrix(0.41669,0,0,0.41669,-214.12,-92.4521)">
        <path d="M2056.65,1111.61L1961.58,1111.61C1949.28,1111.61 1941.45,1124.8 1947.4,1135.56C1953.14,1145.96 1932.93,1236.05 1890.35,1238.4C1850.31,1240.61 1817.18,1208.66 1817.18,1169.08C1817.18,1154.19 1821.87,1140.39 1829.85,1129.09C1835.04,1121.74 1829.81,1111.61 1820.82,1111.61L1716.18,1111.61C1701.88,1111.61 1690.29,1123.2 1690.29,1137.5C1690.29,1137.5 1680.8,1249.81 1672.74,1245.78C1664.43,1241.63 1655.17,1239.1 1645.37,1238.6L1645.38,1238.59L1645.28,1238.59C1644.11,1238.53 1642.94,1238.5 1641.75,1238.5C1640.57,1238.5 1623.34,1238.2 1623.34,1238.2L1620.73,1376.99L1635.69,1377.15C1649.91,1376.72 1662.26,1375.39 1673.24,1369.8C1681.04,1365.82 1690.29,1371.54 1690.29,1380.3L1690.29,1478.34C1690.29,1492.63 1701.88,1504.22 1716.17,1504.22L2057.61,1504.22C2071.58,1504.22 2082.9,1492.9 2082.9,1478.93L2082.9,1137.86C2082.9,1123.36 2071.15,1111.61 2056.65,1111.61Z" style="fill:rgb(216,103,19);fill-rule:nonzero;"/>
    </g>
    <g transform="matrix(0.41669,0,0,0.41669,-214.12,-92.4521)">
        <path d="M1607.9,1375.37C1624.92,1379.04 1641.17,1376.46 1654.82,1369.5C1662.63,1365.52 1671.88,1371.25 1671.88,1380.01L1671.88,1478.04C1671.88,1492.34 1683.47,1503.93 1697.76,1503.93L2039.2,1503.93C2053.17,1503.93 2064.49,1492.61 2064.49,1478.64L2064.49,1137.57C2064.49,1123.07 2052.74,1111.31 2038.24,1111.31L1943.17,1111.31C1930.87,1111.31 1923.04,1124.5 1928.99,1135.27C1934.73,1145.67 1937.89,1157.7 1937.58,1170.48C1936.72,1206.52 1907.94,1236.21 1871.94,1238.11C1831.9,1240.21 1798.77,1208.37 1798.77,1168.79C1798.77,1153.9 1803.46,1140.1 1811.44,1128.8C1816.63,1121.45 1811.4,1111.31 1802.41,1111.31L1697.77,1111.31C1683.47,1111.31 1671.88,1122.91 1671.88,1137.21L1671.88,1234.64C1671.88,1243.66 1662.39,1249.52 1654.33,1245.49C1645,1240.83 1634.48,1238.2 1623.34,1238.2C1579.56,1238.2 1545.25,1278.74 1555.88,1324.33C1561.23,1347.28 1584.86,1370.41 1607.9,1375.37Z" style="fill:rgb(241,163,79);fill-rule:nonzero;"/>
    </g>
    <g transform="matrix(0.41669,0,0,0.41669,-214.12,-92.4521)">
        <path d="M838.547,1009.96L847.626,1017.33C847.626,1017.33 872.465,1008.42 878.07,1037.94C878.07,1037.94 879.563,1050.52 871.595,1050.54C863.627,1050.57 866.914,1049.17 855.631,1049.5C844.348,1049.83 834.996,1043.88 833.343,1034.72L827.945,1026.96L838.547,1009.96Z" style="fill:rgb(234,142,80);fill-rule:nonzero;"/>
    </g>
    <g transform="matrix(0.41669,0,0,0.41669,-214.12,-92.4521)">
        <path d="M837.52,1025.78C844.763,1018.22 844.18,1012.63 844.18,1012.63C844.18,1012.63 760.297,943.951 751.79,938.355C745.993,934.543 684.217,879.776 655.34,846.389C641.017,829.827 623.274,836.254 602.975,842.078L586.258,846.874C566.072,852.665 560.822,880.897 577.385,894.616C624.03,933.252 701.627,976.71 716.145,985.842C752.188,1008.52 822.739,1035.46 822.739,1035.46C822.739,1035.46 831.299,1032.28 837.52,1025.78Z" style="fill:rgb(30,61,112);fill-rule:nonzero;"/>
    </g>
    <g transform="matrix(0.41669,0,0,0.41669,-214.12,-92.4521)">
        <path d="M935.689,1447.01C935.689,1447.01 956.046,1462.26 987.238,1454.21C987.238,1454.21 1012.39,1448.47 1017.9,1461.02C1017.9,1461.02 979.333,1480.61 969.572,1485.97C962.217,1490.01 954.54,1496.38 949.113,1501.31C944.818,1505.21 938.128,1504.68 934.467,1500.18C932.77,1498.1 930.828,1495.61 928.7,1492.73C922.754,1484.67 908.896,1458.64 908.896,1458.64L935.689,1447.01Z" style="fill:rgb(35,56,98);fill-rule:nonzero;"/>
    </g>
    <g transform="matrix(0.41669,0,0,0.41669,-214.12,-92.4521)">
        <path d="M945.195,1439.97C945.195,1439.97 932.799,1468.55 904.186,1463.3C904.186,1463.3 845.798,1415.08 805.748,1364.99C792.741,1348.72 781.666,1332.25 775.158,1317.18C748.6,1255.69 676.917,1163.98 631.341,1117.5L745.369,1076.25C745.369,1076.25 781.893,1149.72 830.488,1239.97C865.511,1304.99 906.791,1378.73 945.195,1439.97Z" style="fill:rgb(43,71,139);fill-rule:nonzero;"/>
    </g>
    <g transform="matrix(0.41669,0,0,0.41669,-214.12,-92.4521)">
        <path d="M830.488,1239.97L805.748,1364.99C792.741,1348.72 781.666,1332.25 775.158,1317.18C748.6,1255.69 676.917,1163.98 631.341,1117.5L745.369,1076.25C745.369,1076.25 781.893,1149.72 830.488,1239.97Z" style="fill:rgb(35,56,98);fill-rule:nonzero;"/>
    </g>
    <g transform="matrix(0.41669,0,0,0.41669,-214.12,-92.4521)">
        <path d="M736.984,1463.23C736.984,1463.23 735.741,1486.03 763.39,1489.08C763.39,1489.08 779.189,1489.16 779.234,1503.67L698.877,1503.93C698.877,1503.93 696.544,1498.07 695.978,1485.53C695.543,1475.9 705.313,1450.72 705.313,1450.72L736.984,1463.23Z" style="fill:rgb(35,56,98);fill-rule:nonzero;"/>
    </g>
    <g transform="matrix(0.41669,0,0,0.41669,-214.12,-92.4521)">
        <path d="M707.968,1076.25C707.968,1076.25 758.766,1132.07 791.012,1232.63C808.556,1287.34 758.855,1424.91 749.166,1472.7C749.166,1472.7 715.825,1475.53 693.028,1466.72C693.028,1466.72 691.296,1368 704.629,1291.91C712.09,1249.33 637.744,1200.84 605.258,1123.9C583.158,1071.56 610.044,1072.45 643.085,1071.19L707.968,1076.25Z" style="fill:rgb(43,71,139);fill-rule:nonzero;"/>
    </g>
    <g transform="matrix(0.41669,0,0,0.41669,-214.12,-92.4521)">
        <path d="M649.327,827.222C621.064,843.181 563.205,828.463 563.205,828.463C563.205,828.463 586.702,801.6 576.025,758.337L598.216,769.606L622.053,781.712C622.053,781.712 623.593,789.353 624.665,803.076C624.938,806.61 625.182,810.558 625.351,814.871C639.862,819.271 649.327,827.222 649.327,827.222Z" style="fill:rgb(255,176,123);fill-rule:nonzero;"/>
    </g>
    <g transform="matrix(0.41669,0,0,0.41669,-214.12,-92.4521)">
        <path d="M752.962,1073.37C752.962,1078.33 747.24,1080.71 746.024,1080.95C734.626,1083.04 702.797,1095.42 674.124,1098.26C649.981,1100.79 627.565,1098.38 602.939,1093.44C599.679,1092.78 592.023,1090.72 591.479,1087.6C590.8,1084.18 496.492,895.342 569.806,814.224C571.527,812.321 585.999,815.748 599.233,818.889C611.455,821.788 622.666,820.172 632.678,816.156L645.089,822.687C660.33,831.18 689.17,861.354 692.544,885.03C694.258,897.071 701.144,905.987 703.136,916.579C703.876,920.498 704.632,924.325 705.401,928.054C706.903,935.369 708.452,942.33 710.044,948.951C714.355,966.858 718.907,982.274 723.377,995.592C728.133,1009.73 732.798,1021.49 736.965,1031.33C742.37,1044.09 746.938,1053.63 749.792,1060.93C751.808,1066.07 752.962,1070.1 752.962,1073.37Z" style="fill:rgb(42,78,150);fill-rule:nonzero;"/>
    </g>
    <g transform="matrix(0.41669,0,0,0.41669,-214.12,-92.4521)">
        <path d="M749.792,1060.93C616.665,998.204 570.56,877.767 570.56,877.767C570.56,877.767 678.722,917.666 705.401,928.054C706.903,935.369 708.452,942.33 710.044,948.951C714.355,966.858 718.907,982.274 723.377,995.592C728.133,1009.73 732.798,1021.49 736.965,1031.33C742.37,1044.09 746.938,1053.63 749.792,1060.93Z" style="fill:rgb(30,61,112);fill-rule:nonzero;"/>
    </g>
    <g transform="matrix(0.41669,0,0,0.41669,-214.12,-92.4521)">
        <path d="M1125.83,927.533L1097.31,837.111C1094.54,828.33 1085.46,824.173 1077.52,826.406L1077.5,826.412C1077.08,826.532 1076.66,826.676 1076.25,826.831L1066.25,830.171C1066.25,830.171 1050.59,846.292 1039.36,849.543C1004.82,859.536 972.037,841.128 959.436,807.455C945.42,770.001 961.681,728.873 999.329,717C1012.21,712.938 1037.56,720.508 1037.56,720.508L1047.74,717.126C1053.27,715.445 1057.06,709.481 1055.09,703.221L1023.7,603.696C1019.41,590.093 1004.91,582.542 991.303,586.833L898.628,616.059C890.051,618.764 881.632,611.5 883.047,602.62C884.683,592.352 884.021,581.557 880.682,570.966C867.548,529.321 818.699,508.84 778.525,532.626C758.299,544.602 743.392,574.02 745.579,597.424C747.195,614.708 754.522,629.398 765.237,640.294C771.363,646.523 768.693,657.037 760.361,659.664L667.11,689.072C653.513,693.361 645.967,707.86 650.255,721.457L752.676,1046.23C756.865,1059.51 771.031,1066.88 784.316,1062.69L1108.73,960.385C1122.52,956.035 1130.18,941.327 1125.83,927.533Z" style="fill:rgb(74,117,203);fill-rule:nonzero;"/>
    </g>
    <g transform="matrix(0.41669,0,0,0.41669,-214.12,-92.4521)">
        <path d="M735.71,600.714C737.326,617.998 744.653,632.688 755.369,643.584C761.494,649.813 758.824,660.325 750.492,662.953L657.242,692.361C643.645,696.649 636.098,711.149 640.386,724.747L742.807,1049.52C746.996,1062.8 761.162,1070.17 774.447,1065.98L1098.86,963.674C1112.66,959.324 1120.31,944.616 1115.96,930.822L1087.44,840.401C1083.75,828.703 1068.86,825.211 1060.4,834.097C1052.24,842.679 1041.74,849.288 1029.49,852.834C994.95,862.826 958.077,844.353 945.476,810.68C931.46,773.226 951.812,732.162 989.461,720.289C1003.62,715.823 1018.15,716.145 1031.3,720.346C1039.84,723.076 1047.92,715.064 1045.22,706.51L1013.83,606.984C1009.54,593.382 995.037,585.833 981.435,590.122L888.759,619.35C880.183,622.054 871.763,614.791 873.178,605.91C874.813,595.641 874.152,584.847 870.812,574.255C857.678,532.609 808.832,512.129 768.657,535.915C748.43,547.892 733.522,577.31 735.71,600.714Z" style="fill:rgb(105,157,238);fill-rule:nonzero;"/>
    </g>
    <g transform="matrix(0.41669,0,0,0.41669,-214.12,-92.4521)">
        <path d="M827.681,1024.58L839.185,1028.8C839.185,1028.8 862.223,1012.51 876.564,1039C876.564,1039 881.753,1050.57 873.541,1053.08C865.328,1055.6 868.314,1053.23 856.771,1057.08C845.229,1060.92 833.857,1058.15 829.497,1049.91L821.679,1044.17L827.681,1024.58Z" style="fill:rgb(255,176,123);fill-rule:nonzero;"/>
    </g>
    <g transform="matrix(0.41669,0,0,0.41669,-214.12,-92.4521)">
        <path d="M837.148,1040.85C841.402,1029.75 843.345,1024.72 843.345,1024.72C843.345,1024.72 756.418,953.868 747.562,947.791C741.525,943.65 681.439,898.736 652.145,863.733C637.613,846.371 614.701,838.434 592.541,843.08L574.294,846.907C552.26,851.528 545.101,879.417 562.193,894.069C610.332,935.338 691.523,983.203 706.661,993.158C744.242,1017.87 827.365,1052.5 827.365,1052.5C827.365,1052.5 833.809,1049.56 837.148,1040.85Z" style="fill:rgb(42,78,150);fill-rule:nonzero;"/>
    </g>
    <g transform="matrix(0.41669,0,0,0.41669,-214.12,-92.4521)">
        <path d="M624.665,803.076C596.873,804.637 578.799,781.689 578.799,781.689C578.799,781.689 591.364,774.729 598.216,769.606L622.053,781.712C622.053,781.712 623.593,789.353 624.665,803.076Z" style="fill:rgb(234,142,80);fill-rule:nonzero;"/>
    </g>
    <g transform="matrix(0.41669,0,0,0.41669,-214.12,-92.4521)">
        <path d="M636.506,774.541C636.506,774.541 594.395,804.762 575.979,778.247C557.563,751.732 539.725,737.776 565.833,717.36C591.942,696.945 604.249,703.395 612.548,710.749C620.848,718.104 646.985,765.997 636.506,774.541Z" style="fill:rgb(255,176,123);fill-rule:nonzero;"/>
    </g>
    <g transform="matrix(0.41669,0,0,0.41669,-214.12,-92.4521)">
        <path d="M616.997,686.804C615.487,676.611 612.09,669.439 612.09,669.439C612.09,669.439 609.447,680.387 589.441,678.876C569.436,677.367 537.728,680.844 527.158,703.641C526.485,705.092 525.886,706.586 525.354,708.113C523.44,703.059 522.979,695.485 522.979,695.485C519.177,705.299 522.979,717.576 522.979,717.576C522.924,717.933 522.875,718.292 522.823,718.651C518.409,722.384 514.701,733.987 514.701,733.987C516.034,730.753 519.283,728.64 522.181,727.339C522.091,745.078 529.284,762.42 541.911,767.583C560.376,775.132 560.229,769.373 578.799,781.689C578.799,781.689 583.779,775.51 580.383,771.357C576.984,767.205 564.151,761.166 571.323,755.126C578.495,749.087 581.137,755.881 583.779,751.729C586.422,747.576 573.211,735.497 590.196,724.174C607.183,712.85 618.507,696.995 616.997,686.804Z" style="fill:rgb(35,56,98);fill-rule:nonzero;"/>
    </g>
    <g transform="matrix(0.41669,0,0,0.41669,-214.12,-92.4521)">
        <path d="M1701.06,1504.09C1701.06,1504.09 1679.76,1472.61 1646.44,1475.15C1636.31,1475.92 1619.85,1478.39 1600.73,1481.02C1586.31,1430.7 1546.57,1311.1 1492.96,1304.36C1438.22,1297.49 1545.35,1430.5 1589.16,1482.58C1581.17,1483.63 1572.87,1484.66 1564.5,1485.57C1541.3,1460.8 1500.88,1424.11 1467.13,1426.93C1433.3,1429.76 1496.64,1464.74 1542.37,1487.62C1514.31,1489.72 1487.71,1489.49 1471.46,1483.21C1431.65,1467.82 1395.06,1504.09 1395.06,1504.09L1701.06,1504.09Z" style="fill:rgb(130,179,120);fill-rule:nonzero;"/>
    </g>
</svg>
