<?xml version="1.0" encoding="UTF-8" standalone="no"?>
<!DOCTYPE svg PUBLIC "-//W3C//DTD SVG 1.1//EN" "http://www.w3.org/Graphics/SVG/1.1/DTD/svg11.dtd">
<svg width="100%" height="100%" viewBox="0 0 500 500" version="1.1" xmlns="http://www.w3.org/2000/svg" xmlns:xlink="http://www.w3.org/1999/xlink" xml:space="preserve" xmlns:serif="http://www.serif.com/" style="fill-rule:evenodd;clip-rule:evenodd;stroke-linejoin:round;stroke-miterlimit:2;">
    <g transform="matrix(1.42857,0,0,1.42857,-1178.57,-97.6829)">
        <path d="M1000,166.243C985.787,166.243 974.265,154.721 974.265,140.508L974.265,94.114C974.265,79.9 985.787,68.378 1000,68.378C1014.21,68.378 1025.74,79.9 1025.74,94.114L1025.74,140.508C1025.74,154.721 1014.21,166.243 1000,166.243Z" style="fill:white;fill-rule:nonzero;"/>
    </g>
    <g transform="matrix(1.42857,0,0,1.42857,-1178.57,-97.6829)">
        <path d="M1072.79,196.322C1066.2,196.322 1059.62,193.809 1054.59,188.785C1044.54,178.734 1044.54,162.44 1054.59,152.39L1087.35,119.634C1092.37,114.609 1098.96,112.097 1105.55,112.097C1112.13,112.097 1118.72,114.609 1123.74,119.634C1133.79,129.684 1133.79,145.979 1123.74,156.029L1090.99,188.785C1085.96,193.809 1079.38,196.322 1072.79,196.322Z" style="fill:rgb(56,61,71);fill-rule:nonzero;"/>
    </g>
    <g transform="matrix(1.42857,0,0,1.42857,-1178.57,-97.6829)">
        <path d="M1149.26,269.113L1102.94,269.113C1088.73,269.113 1077.21,257.591 1077.21,243.378C1077.21,229.164 1088.73,217.643 1102.94,217.643L1149.26,217.643C1163.48,217.643 1175,229.164 1175,243.378C1175,257.591 1163.48,269.113 1149.26,269.113Z" style="fill:rgb(106,109,117);fill-rule:nonzero;"/>
    </g>
    <g transform="matrix(1.42857,0,0,1.42857,-1178.57,-97.6829)">
        <path d="M1105.55,374.659C1098.96,374.659 1092.37,372.146 1087.35,367.121L1054.59,334.365C1044.54,324.315 1044.54,308.02 1054.59,297.97C1059.62,292.945 1066.2,290.433 1072.79,290.433C1079.38,290.433 1085.96,292.945 1090.99,297.97L1123.74,330.726C1133.79,340.776 1133.79,357.071 1123.74,367.121C1118.72,372.146 1112.13,374.659 1105.55,374.659Z" style="fill:rgb(131,134,140);fill-rule:nonzero;"/>
    </g>
    <g transform="matrix(1.42857,0,0,1.42857,-1178.57,-97.6829)">
        <path d="M1000,418.378C985.786,418.378 974.264,406.855 974.264,392.643L974.264,346.319C974.264,332.106 985.786,320.583 1000,320.583C1014.21,320.583 1025.74,332.106 1025.74,346.319L1025.74,392.643C1025.74,406.855 1014.21,418.378 1000,418.378Z" style="fill:rgb(155,158,163);fill-rule:nonzero;"/>
    </g>
    <g transform="matrix(1.42857,0,0,1.42857,-1178.57,-97.6829)">
        <path d="M894.454,374.659C887.868,374.659 881.282,372.146 876.256,367.121C866.206,357.071 866.206,340.776 876.256,330.726L909.063,297.92C914.088,292.895 920.674,290.382 927.26,290.382C933.846,290.382 940.432,292.895 945.458,297.92C955.509,307.97 955.509,324.265 945.458,334.315L912.652,367.121C907.627,372.146 901.04,374.659 894.454,374.659Z" style="fill:rgb(180,182,186);fill-rule:nonzero;"/>
    </g>
    <g transform="matrix(1.42857,0,0,1.42857,-1178.57,-97.6829)">
        <path d="M897.059,269.113L850.735,269.113C836.522,269.113 825,257.591 825,243.378C825,229.164 836.522,217.643 850.735,217.643L897.059,217.643C911.272,217.643 922.794,229.164 922.794,243.378C922.794,257.591 911.272,269.113 897.059,269.113Z" style="fill:rgb(205,206,209);fill-rule:nonzero;"/>
    </g>
    <g transform="matrix(1.42857,0,0,1.42857,-1178.57,-97.6829)">
        <path d="M927.21,196.322C920.624,196.322 914.038,193.809 909.012,188.785L876.256,156.029C866.206,145.979 866.206,129.684 876.256,119.634C881.282,114.609 887.868,112.097 894.454,112.097C901.04,112.097 907.627,114.609 912.652,119.634L945.407,152.39C955.458,162.44 955.458,178.734 945.407,188.785C940.382,193.809 933.796,196.322 927.21,196.322Z" style="fill:rgb(218,219,221);fill-rule:nonzero;"/>
    </g>
</svg>
